<svg version="1.1" viewBox="0.0 0.0 148.0 133.0" fill="none" stroke="none" stroke-linecap="square" stroke-miterlimit="10" xmlns:xlink="http://www.w3.org/1999/xlink" xmlns="http://www.w3.org/2000/svg"><clipPath id="p.0"><path d="m0 0l148.0 0l0 133.0l-148.0 0l0 -133.0z" clip-rule="nonzero"/></clipPath><g clip-path="url(#p.0)"><path fill="#000000" fill-opacity="0.0" d="m0 0l148.0 0l0 133.0l-148.0 0z" fill-rule="evenodd"/><path fill="#275f82" d="m98.63332 6.426876l0 0c2.9571152 -3.757276 15.126511 0.86793995 27.181107 10.330708c12.054588 9.46277 19.429558 20.179733 16.472435 23.937008c0.09635925 -5.0298843 -7.1855774 -14.353512 -17.58812 -22.519434c-10.40255 -8.165924 -21.194305 -13.030015 -26.065422 -11.7482815z" fill-rule="evenodd"/><path fill="#275f82" d="m7.4748406 42.07813l0 0c-2.1221652 -2.4526672 6.091823 -12.972214 18.346457 -23.496063c12.254635 -10.523852 23.909332 -17.066841 26.031498 -14.614174l0 0c-4.9445496 0.9620023 -14.929348 7.339486 -24.909904 15.91044c-9.980558 8.570955 -17.784061 17.469442 -19.46805 22.199797z" fill-rule="evenodd"/><path fill="#275f82" d="m7.2875957 25.804909l0 0c-1.6177158 -1.8090591 1.9499044 -7.703388 7.968504 -13.165355c6.0185986 -5.4619656 12.209055 -8.423232 13.826771 -6.6141734l0 0c-3.369936 1.0263677 -8.089407 4.0781875 -12.508396 8.088484c-4.41899 4.010296 -7.922969 8.421377 -9.286879 11.691044z" fill-rule="evenodd"/><path fill="#999999" fill-opacity="0.7192" d="m6.7559056 68.391075l0 0c0 -32.71091 30.106209 -59.228348 67.244095 -59.228348l0 0c37.137886 0 67.244095 26.517435 67.244095 59.228348l0 0c0 32.710915 -30.106209 59.228348 -67.244095 59.228348l0 0c-37.137886 0 -67.244095 -26.517433 -67.244095 -59.228348z" fill-rule="evenodd"/><path fill="#cccccc" d="m47.29495 26.10105l57.10039 0l0 0c7.4803085 0 13.544296 7.2555256 13.544296 16.205671c0 8.950142 -6.0639877 16.20567 -13.544296 16.20567l-57.10039 0l0 0c-7.4803047 0 -13.544292 -7.2555275 -13.544292 -16.20567c0 -8.950146 6.0639877 -16.205671 13.544292 -16.205671z" fill-rule="evenodd"/><path stroke="#cccccc" stroke-width="1.0" stroke-linejoin="round" stroke-linecap="butt" d="m47.29495 26.10105l57.10039 0l0 0c7.4803085 0 13.544296 7.2555256 13.544296 16.205671c0 8.950142 -6.0639877 16.20567 -13.544296 16.20567l-57.10039 0l0 0c-7.4803047 0 -13.544292 -7.2555275 -13.544292 -16.20567c0 -8.950146 6.0639877 -16.205671 13.544292 -16.205671z" fill-rule="evenodd"/><path fill="#cccccc" d="m14.104987 80.75861l0 0c0 -15.203049 12.719344 -27.527561 28.409447 -27.527561l0 0c7.5346565 0 14.760708 2.900219 20.088516 8.062637c5.3278046 5.1624184 8.3209305 12.164158 8.3209305 19.464924l0 0c0 15.203049 -12.719341 27.527557 -28.409447 27.527557l0 0c-15.690104 0 -28.409447 -12.324509 -28.409447 -27.527557z" fill-rule="evenodd"/><path stroke="#cccccc" stroke-width="1.0" stroke-linejoin="round" stroke-linecap="butt" d="m14.104987 80.75861l0 0c0 -15.203049 12.719344 -27.527561 28.409447 -27.527561l0 0c7.5346565 0 14.760708 2.900219 20.088516 8.062637c5.3278046 5.1624184 8.3209305 12.164158 8.3209305 19.464924l0 0c0 15.203049 -12.719341 27.527557 -28.409447 27.527557l0 0c-15.690104 0 -28.409447 -12.324509 -28.409447 -27.527557z" fill-rule="evenodd"/><path fill="#cccccc" d="m76.892395 80.75853l0 0c0 -15.203049 12.719345 -27.527557 28.409447 -27.527557l0 0c7.5346603 0 14.760712 2.9002151 20.088516 8.0626335c5.327812 5.1624184 8.3209305 12.1641655 8.3209305 19.464924l0 0c0 15.203049 -12.719337 27.527557 -28.409447 27.527557l0 0c-15.690102 0 -28.409447 -12.324509 -28.409447 -27.527557z" fill-rule="evenodd"/><path stroke="#cccccc" stroke-width="1.0" stroke-linejoin="round" stroke-linecap="butt" d="m76.892395 80.75853l0 0c0 -15.203049 12.719345 -27.527557 28.409447 -27.527557l0 0c7.5346603 0 14.760712 2.9002151 20.088516 8.0626335c5.327812 5.1624184 8.3209305 12.1641655 8.3209305 19.464924l0 0c0 15.203049 -12.719337 27.527557 -28.409447 27.527557l0 0c-15.690102 0 -28.409447 -12.324509 -28.409447 -27.527557z" fill-rule="evenodd"/><path fill="#000000" d="m94.57271 87.67853l0 -1.328125l6.15625 -7.078125q-1.046875 0.0625 -1.84375 0.0625l-3.9375 0l0 -1.328125l7.90625 0l0 1.078125l-5.25 6.140625l-1.0 1.125q1.09375 -0.078125 2.0625 -0.078125l4.46875 0l0 1.40625l-8.5625 0z" fill-rule="nonzero"/><path fill="#cccccc" d="m34.062992 62.417164l0 0c0 -5.064785 4.1058197 -9.170605 9.170605 -9.170605l61.532806 0c2.4321976 0 4.764778 0.9661865 6.4845963 2.6860085c1.7198257 1.7198219 2.6860046 4.0523987 2.6860046 6.4845963l0 36.682415c0 5.064781 -4.105812 9.170601 -9.170601 9.170601l-61.532806 0l0 0c-5.064785 0 -9.170605 -4.1058197 -9.170605 -9.170601z" fill-rule="evenodd"/><path stroke="#cccccc" stroke-width="1.0" stroke-linejoin="round" stroke-linecap="butt" d="m34.062992 62.417164l0 0c0 -5.064785 4.1058197 -9.170605 9.170605 -9.170605l61.532806 0c2.4321976 0 4.764778 0.9661865 6.4845963 2.6860085c1.7198257 1.7198219 2.6860046 4.0523987 2.6860046 6.4845963l0 36.682415c0 5.064781 -4.105812 9.170601 -9.170601 9.170601l-61.532806 0l0 0c-5.064785 0 -9.170605 -4.1058197 -9.170605 -9.170601z" fill-rule="evenodd"/><path fill="#cccccc" d="m25.92651 19.051182l0 0c0 -5.9316263 4.730974 -10.740158 10.566929 -10.740158l0 0c2.8025246 0 5.490265 1.1315489 7.4719467 3.1457195c1.9816856 2.0141697 3.0949821 4.7459717 3.0949821 7.5944386l0 0c0 5.9316254 -4.730976 10.740156 -10.566929 10.740156l0 0c-5.8359547 0 -10.566929 -4.808531 -10.566929 -10.740156z" fill-rule="evenodd"/><path stroke="#cccccc" stroke-width="1.0" stroke-linejoin="round" stroke-linecap="butt" d="m25.92651 19.051182l0 0c0 -5.9316263 4.730974 -10.740158 10.566929 -10.740158l0 0c2.8025246 0 5.490265 1.1315489 7.4719467 3.1457195c1.9816856 2.0141697 3.0949821 4.7459717 3.0949821 7.5944386l0 0c0 5.9316254 -4.730976 10.740156 -10.566929 10.740156l0 0c-5.8359547 0 -10.566929 -4.808531 -10.566929 -10.740156z" fill-rule="evenodd"/><path fill="#cccccc" d="m104.191605 19.051182l0 0c0 -5.9316263 4.7309723 -10.740158 10.566925 -10.740158l0 0c2.8025208 0 5.490265 1.1315489 7.4719467 3.1457195c1.9816818 2.0141697 3.094986 4.7459717 3.094986 7.5944386l0 0c0 5.9316254 -4.73098 10.740156 -10.566933 10.740156l0 0c-5.8359528 0 -10.566925 -4.808531 -10.566925 -10.740156z" fill-rule="evenodd"/><path stroke="#cccccc" stroke-width="1.0" stroke-linejoin="round" stroke-linecap="butt" d="m104.191605 19.051182l0 0c0 -5.9316263 4.7309723 -10.740158 10.566925 -10.740158l0 0c2.8025208 0 5.490265 1.1315489 7.4719467 3.1457195c1.9816818 2.0141697 3.094986 4.7459717 3.094986 7.5944386l0 0c0 5.9316254 -4.73098 10.740156 -10.566933 10.740156l0 0c-5.8359528 0 -10.566925 -4.808531 -10.566925 -10.740156z" fill-rule="evenodd"/><path fill="#ffffff" d="m47.060368 45.32152l0 0c0 -5.8272552 4.730976 -10.551182 10.566929 -10.551182l0 0c2.8025246 0 5.490265 1.1116409 7.4719467 3.0903702c1.9816818 1.9787292 3.094986 4.662464 3.094986 7.4608116l0 0c0 5.8272552 -4.73098 10.551182 -10.566933 10.551182l0 0c-5.8359528 0 -10.566929 -4.7239265 -10.566929 -10.551182z" fill-rule="evenodd"/><path stroke="#ffffff" stroke-width="1.0" stroke-linejoin="round" stroke-linecap="butt" d="m47.060368 45.32152l0 0c0 -5.8272552 4.730976 -10.551182 10.566929 -10.551182l0 0c2.8025246 0 5.490265 1.1116409 7.4719467 3.0903702c1.9816818 1.9787292 3.094986 4.662464 3.094986 7.4608116l0 0c0 5.8272552 -4.73098 10.551182 -10.566933 10.551182l0 0c-5.8359528 0 -10.566929 -4.7239265 -10.566929 -10.551182z" fill-rule="evenodd"/><path fill="#999999" d="m31.905512 80.79921l0 0c0 -4.774872 3.870798 -8.645668 8.64567 -8.645668l0 0c2.2929726 0 4.492035 0.91088104 6.113411 2.532257c1.621376 1.6213837 2.532257 3.8204422 2.532257 6.113411l0 0c0 4.774872 -3.8707962 8.645676 -8.645668 8.645676l0 0c-4.774872 0 -8.64567 -3.8708038 -8.64567 -8.645676z" fill-rule="evenodd"/><path stroke="#999999" stroke-width="1.0" stroke-linejoin="round" stroke-linecap="butt" d="m31.905512 80.79921l0 0c0 -4.774872 3.870798 -8.645668 8.64567 -8.645668l0 0c2.2929726 0 4.492035 0.91088104 6.113411 2.532257c1.621376 1.6213837 2.532257 3.8204422 2.532257 6.113411l0 0c0 4.774872 -3.8707962 8.645676 -8.645668 8.645676l0 0c-4.774872 0 -8.64567 -3.8708038 -8.64567 -8.645676z" fill-rule="evenodd"/><path fill="#000000" d="m52.902885 46.96194l0 0c0 -2.583126 2.1151924 -4.677162 4.724411 -4.677162l0 0c1.2529907 0 2.4546623 0.49277115 3.340664 1.3699074c0.8859978 0.87714005 1.3837471 2.0667953 1.3837471 3.3072548l0 0c0 2.58313 -2.1151924 4.677166 -4.724411 4.677166l0 0c-2.6092186 0 -4.724411 -2.094036 -4.724411 -4.677166z" fill-rule="evenodd"/><path stroke="#000000" stroke-width="1.0" stroke-linejoin="round" stroke-linecap="butt" d="m52.902885 46.96194l0 0c0 -2.583126 2.1151924 -4.677162 4.724411 -4.677162l0 0c1.2529907 0 2.4546623 0.49277115 3.340664 1.3699074c0.8859978 0.87714005 1.3837471 2.0667953 1.3837471 3.3072548l0 0c0 2.58313 -2.1151924 4.677166 -4.724411 4.677166l0 0c-2.6092186 0 -4.724411 -2.094036 -4.724411 -4.677166z" fill-rule="evenodd"/><path fill="#999999" d="m47.060368 45.636482l0 -5.433071l0 0c0 -3.0006027 4.730976 -5.433071 10.566929 -5.433071c5.8359528 0 10.566933 2.4324684 10.566933 5.433071l0 5.433071z" fill-rule="evenodd"/><path stroke="#999999" stroke-width="1.0" stroke-linejoin="round" stroke-linecap="butt" d="m47.060368 45.636482l0 -5.433071l0 0c0 -3.0006027 4.730976 -5.433071 10.566929 -5.433071c5.8359528 0 10.566933 2.4324684 10.566933 5.433071l0 5.433071z" fill-rule="evenodd"/><path fill="#ffffff" d="m84.1601 45.32152l0 0c0 -5.8272552 4.73098 -10.551182 10.566933 -10.551182l0 0c2.8025208 0 5.490265 1.1116409 7.4719467 3.0903702c1.9816818 1.9787292 3.0949783 4.662464 3.0949783 7.4608116l0 0c0 5.8272552 -4.7309723 10.551182 -10.566925 10.551182l0 0c-5.8359528 0 -10.566933 -4.7239265 -10.566933 -10.551182z" fill-rule="evenodd"/><path stroke="#ffffff" stroke-width="1.0" stroke-linejoin="round" stroke-linecap="butt" d="m84.1601 45.32152l0 0c0 -5.8272552 4.73098 -10.551182 10.566933 -10.551182l0 0c2.8025208 0 5.490265 1.1116409 7.4719467 3.0903702c1.9816818 1.9787292 3.0949783 4.662464 3.0949783 7.4608116l0 0c0 5.8272552 -4.7309723 10.551182 -10.566925 10.551182l0 0c-5.8359528 0 -10.566933 -4.7239265 -10.566933 -10.551182z" fill-rule="evenodd"/><path fill="#000000" d="m90.002625 46.96194l0 0c0 -2.583126 2.1151886 -4.677162 4.724411 -4.677162l0 0c1.2529907 0 2.4546585 0.49277115 3.34066 1.3699074c0.8860016 0.87714005 1.3837509 2.0667953 1.3837509 3.3072548l0 0c0 2.58313 -2.1151962 4.677166 -4.724411 4.677166l0 0c-2.6092224 0 -4.724411 -2.094036 -4.724411 -4.677166z" fill-rule="evenodd"/><path stroke="#000000" stroke-width="1.0" stroke-linejoin="round" stroke-linecap="butt" d="m90.002625 46.96194l0 0c0 -2.583126 2.1151886 -4.677162 4.724411 -4.677162l0 0c1.2529907 0 2.4546585 0.49277115 3.34066 1.3699074c0.8860016 0.87714005 1.3837509 2.0667953 1.3837509 3.3072548l0 0c0 2.58313 -2.1151962 4.677166 -4.724411 4.677166l0 0c-2.6092224 0 -4.724411 -2.094036 -4.724411 -4.677166z" fill-rule="evenodd"/><path fill="#999999" d="m84.1601 45.636482l0 -5.433071l0 0c0 -3.0006027 4.73098 -5.433071 10.566933 -5.433071c5.8359528 0 10.566925 2.4324684 10.566925 5.433071l0 5.433071z" fill-rule="evenodd"/><path stroke="#999999" stroke-width="1.0" stroke-linejoin="round" stroke-linecap="butt" d="m84.1601 45.636482l0 -5.433071l0 0c0 -3.0006027 4.73098 -5.433071 10.566933 -5.433071c5.8359528 0 10.566925 2.4324684 10.566925 5.433071l0 5.433071z" fill-rule="evenodd"/><path fill="#999999" d="m30.362118 72.15489l0 0c-0.2609234 -3.2702255 4.19508 -6.2808456 9.952755 -6.724411c5.757679 -0.44356537 10.636715 1.8478851 10.897636 5.1181107l0 0c-0.58597946 -3.1042862 -5.3483086 -5.1932297 -10.86969 -4.767868c-5.5213814 0.42536163 -9.89422 3.218071 -9.980701 6.3741684z" fill-rule="evenodd"/><path stroke="#999999" stroke-width="1.0" stroke-linejoin="round" stroke-linecap="butt" d="m30.362118 72.15489l0 0c-0.2609234 -3.2702255 4.19508 -6.2808456 9.952755 -6.724411c5.757679 -0.44356537 10.636715 1.8478851 10.897636 5.1181107l0 0c-0.58597946 -3.1042862 -5.3483086 -5.1932297 -10.86969 -4.767868c-5.5213814 0.42536163 -9.89422 3.218071 -9.980701 6.3741684z" fill-rule="evenodd"/><path fill="#999999" d="m98.632545 80.79921l0 0c0 -4.774872 3.8707962 -8.645668 8.645668 -8.645668l0 0c2.2929764 0 4.492035 0.91088104 6.113411 2.532257c1.621376 1.6213837 2.532257 3.8204422 2.532257 6.113411l0 0c0 4.774872 -3.8707962 8.645676 -8.645668 8.645676l0 0c-4.774872 0 -8.645668 -3.8708038 -8.645668 -8.645676z" fill-rule="evenodd"/><path stroke="#999999" stroke-width="1.0" stroke-linejoin="round" stroke-linecap="butt" d="m98.632545 80.79921l0 0c0 -4.774872 3.8707962 -8.645668 8.645668 -8.645668l0 0c2.2929764 0 4.492035 0.91088104 6.113411 2.532257c1.621376 1.6213837 2.532257 3.8204422 2.532257 6.113411l0 0c0 4.774872 -3.8707962 8.645676 -8.645668 8.645676l0 0c-4.774872 0 -8.645668 -3.8708038 -8.645668 -8.645676z" fill-rule="evenodd"/><path fill="#999999" d="m97.08915 72.15489l0 0c-0.26091766 -3.2702255 4.1950836 -6.2808456 9.952759 -6.724411c5.757675 -0.44356537 10.636711 1.8478851 10.897636 5.1181107l0 0c-0.5859833 -3.1042862 -5.3483124 -5.1932297 -10.86969 -4.767868c-5.521385 0.42536163 -9.894218 3.218071 -9.980705 6.3741684z" fill-rule="evenodd"/><path stroke="#999999" stroke-width="1.0" stroke-linejoin="round" stroke-linecap="butt" d="m97.08915 72.15489l0 0c-0.26091766 -3.2702255 4.1950836 -6.2808456 9.952759 -6.724411c5.757675 -0.44356537 10.636711 1.8478851 10.897636 5.1181107l0 0c-0.5859833 -3.1042862 -5.3483124 -5.1932297 -10.86969 -4.767868c-5.521385 0.42536163 -9.894218 3.218071 -9.980705 6.3741684z" fill-rule="evenodd"/><path fill="#275f82" d="m143.09718 89.447014l0 0c3.2528229 3.5137482 -3.1985168 14.837067 -14.409454 25.291336c-11.210945 10.454277 -22.93615 16.08068 -26.18898 12.566933c4.9524155 0.88082886 15.287209 -4.8710785 24.961731 -13.892624c9.674515 -9.021545 16.148514 -18.94394 15.6367035 -23.965645z" fill-rule="evenodd"/><path fill="#275f82" d="m143.51149 107.729805l0 0c1.3046112 1.4089813 -2.4604187 7.0424347 -8.409439 12.58268c-5.9490204 5.5402374 -11.829254 8.8892975 -13.133865 7.480316l0 0c3.1484451 -1.3052139 7.702759 -4.5608063 12.070648 -8.628578c4.3679047 -4.067772 7.941986 -8.382027 9.472656 -11.434418z" fill-rule="evenodd"/><path fill="#275f82" d="m41.700764 126.312416l0 0c-3.374588 3.3572006 -14.077452 -1.8884735 -23.905512 -11.716537c-9.828058 -9.828056 -15.059629 -20.516815 -11.685039 -23.874016l0 0c-1.1809726 4.6128006 4.1720476 14.128006 12.804435 22.760391c8.632387 8.632385 18.158346 13.996162 22.786116 12.830162z" fill-rule="evenodd"/></g></svg>