<svg version="1.1" viewBox="0.0 0.0 163.1994750656168 163.63517060367454" fill="none" stroke="none" stroke-linecap="square" stroke-miterlimit="10" xmlns:xlink="http://www.w3.org/1999/xlink" xmlns="http://www.w3.org/2000/svg"><clipPath id="p.0"><path d="m0 0l163.19948 0l0 163.63518l-163.19948 0l0 -163.63518z" clip-rule="nonzero"/></clipPath><g clip-path="url(#p.0)"><path fill="#000000" fill-opacity="0.0" d="m0 0l163.19948 0l0 163.63518l-163.19948 0z" fill-rule="evenodd"/><path fill="#3278a3" d="m0.14173229 0.21128608l163.21259 0l0 163.2126l-163.21259 0z" fill-rule="evenodd"/><path fill="#275f82" d="m4.8481107 42.709846l0 0c-1.9482172 -2.6787987 5.9061885 -13.0784855 17.543308 -23.228348c11.6371155 -10.149863 22.650208 -16.206358 24.598423 -13.527559l0 0c-5.0701637 1.2760835 -14.242535 7.2443857 -23.37503 15.209724c-9.132497 7.9653378 -16.496557 16.420069 -18.7667 21.546183z" fill-rule="evenodd"/><path fill="#275f82" d="m117.35652 7.6791906l0 0c3.391983 -4.0877767 14.785812 1.1649456 25.448822 11.732284c10.66301 10.567339 16.557343 22.447657 13.165344 26.535433c0.73721313 -5.5262375 -5.2434235 -15.874052 -14.445099 -24.993166c-9.201675 -9.119116 -19.20829 -14.615121 -24.169067 -13.27455z" fill-rule="evenodd"/><path fill="#6aa84f" fill-opacity="0.7098" d="m9.580052 82.734795l0 0c0 -37.033516 31.981678 -67.055115 71.43307 -67.055115l0 0c18.945229 0 37.11451 7.0647154 50.510803 19.639988c13.396301 12.575275 20.922272 29.631008 20.922272 47.415127l0 0c0 37.033524 -31.981682 67.05512 -71.433075 67.05512l0 0c-39.451393 0 -71.43307 -30.021599 -71.43307 -67.05512z" fill-rule="evenodd"/><path fill="#275f82" d="m45.830612 154.28842l0 0c-3.7050934 3.7398834 -15.500803 -3.7408447 -26.346458 -16.708664c-10.845654 -12.967812 -16.634224 -26.512085 -12.929132 -30.25196c-0.5787802 5.961685 5.3670335 17.679398 14.530357 28.635704c9.163322 10.956314 19.289057 18.454865 24.745234 18.32492z" fill-rule="evenodd"/><path fill="#275f82" d="m155.64732 110.286896l0 0c3.409378 4.035591 -3.3310242 17.036964 -15.055115 29.039368c-11.724106 12.002411 -23.992203 18.4608 -27.40158 14.425201l0 0c5.1855316 1.0125275 15.997925 -5.5902557 26.115265 -15.947769c10.117325 -10.357521 16.883102 -21.750183 16.34143 -27.5168z" fill-rule="evenodd"/><path fill="#275f82" d="m156.10068 131.29083l0 0c1.356781 1.6177216 -2.5845184 8.083145 -8.803162 14.4409485c-6.218628 6.357788 -12.359741 10.200394 -13.716522 8.582672l0 0c3.2868195 -1.4972992 8.044937 -5.233017 12.610794 -9.901047c4.565872 -4.668045 8.304535 -9.619247 9.90889 -13.122574z" fill-rule="evenodd"/><path fill="#275f82" d="m5.9539976 27.563652l0 0c-1.5655317 -2.1917439 2.5661402 -8.671276 9.228347 -14.472441c6.6622066 -5.801164 13.332106 -8.727177 14.897638 -6.5354333l0 0c-3.5906925 0.92249155 -8.730253 4.0622735 -13.621794 8.321617c-4.8915396 4.259344 -8.854816 9.045923 -10.504191 12.686256z" fill-rule="evenodd"/><path fill="#b6d7a8" d="m54.84482 38.236454l57.100395 0l0 0c7.480301 0 13.544289 8.06522 13.544289 18.014172c0 9.948952 -6.0639877 18.014175 -13.544289 18.014175l-57.100395 0l0 0c-7.4803085 0 -13.544292 -8.065224 -13.544292 -18.014175c0 -9.948952 6.063984 -18.014172 13.544292 -18.014172z" fill-rule="evenodd"/><path stroke="#b6d7a8" stroke-width="1.0" stroke-linejoin="round" stroke-linecap="butt" d="m54.84482 38.236454l57.100395 0l0 0c7.480301 0 13.544289 8.06522 13.544289 18.014172c0 9.948952 -6.0639877 18.014175 -13.544289 18.014175l-57.100395 0l0 0c-7.4803085 0 -13.544292 -8.065224 -13.544292 -18.014175c0 -9.948952 6.063984 -18.014172 13.544292 -18.014172z" fill-rule="evenodd"/><path fill="#b6d7a8" d="m19.581366 97.68766l0 0c0 -16.168465 12.719343 -29.275597 28.409449 -29.275597l0 0c7.5346527 0 14.760708 3.0843887 20.088516 8.574623c5.3278046 5.490242 8.3209305 12.9366 8.3209305 20.700974l0 0c0 16.168457 -12.719341 29.275589 -28.409447 29.275589l0 0c-15.690105 0 -28.409449 -13.107132 -28.409449 -29.275589z" fill-rule="evenodd"/><path stroke="#b6d7a8" stroke-width="1.0" stroke-linejoin="round" stroke-linecap="butt" d="m19.581366 97.68766l0 0c0 -16.168465 12.719343 -29.275597 28.409449 -29.275597l0 0c7.5346527 0 14.760708 3.0843887 20.088516 8.574623c5.3278046 5.490242 8.3209305 12.9366 8.3209305 20.700974l0 0c0 16.168457 -12.719341 29.275589 -28.409447 29.275589l0 0c-15.690105 0 -28.409449 -13.107132 -28.409449 -29.275589z" fill-rule="evenodd"/><path fill="#b6d7a8" d="m83.35827 97.68767l0 0c0 -16.168465 13.22699 -29.275597 29.543304 -29.275597l0 0c7.835373 0 15.349831 3.0843887 20.890282 8.574623c5.540436 5.490242 8.65303 12.9366 8.65303 20.700974l0 0c0 16.168457 -13.22699 29.275589 -29.543312 29.275589l0 0c-16.316315 0 -29.543304 -13.107132 -29.543304 -29.275589z" fill-rule="evenodd"/><path stroke="#b6d7a8" stroke-width="1.0" stroke-linejoin="round" stroke-linecap="butt" d="m83.35827 97.68767l0 0c0 -16.168465 13.22699 -29.275597 29.543304 -29.275597l0 0c7.835373 0 15.349831 3.0843887 20.890282 8.574623c5.540436 5.490242 8.65303 12.9366 8.65303 20.700974l0 0c0 16.168457 -13.22699 29.275589 -29.543312 29.275589l0 0c-16.316315 0 -29.543304 -13.107132 -29.543304 -29.275589z" fill-rule="evenodd"/><path fill="#000000" d="m101.370674 104.607666l0 -1.328125l6.15625 -7.078125q-1.046875 0.0625 -1.84375 0.0625l-3.9375 0l0 -1.328125l7.90625 0l0 1.078125l-5.25 6.140625l-1.0 1.125q1.09375 -0.078125 2.0625 -0.078125l4.46875 0l0 1.40625l-8.5625 0z" fill-rule="nonzero"/><path fill="#b6d7a8" d="m41.61286 78.17056l0 0c0 -5.3894806 4.3690414 -9.75853 9.75853 -9.75853l60.356956 0c2.5881195 0 5.070244 1.0281296 6.900322 2.8582077c1.8300781 1.8300781 2.8582077 4.3122025 2.8582077 6.900322l0 39.034126c0 5.389488 -4.3690414 9.75853 -9.75853 9.75853l-60.356956 0c-5.389488 0 -9.75853 -4.3690414 -9.75853 -9.75853z" fill-rule="evenodd"/><path stroke="#b6d7a8" stroke-width="1.0" stroke-linejoin="round" stroke-linecap="butt" d="m41.61286 78.17056l0 0c0 -5.3894806 4.3690414 -9.75853 9.75853 -9.75853l60.356956 0c2.5881195 0 5.070244 1.0281296 6.900322 2.8582077c1.8300781 1.8300781 2.8582077 4.3122025 2.8582077 6.900322l0 39.034126c0 5.389488 -4.3690414 9.75853 -9.75853 9.75853l-60.356956 0c-5.389488 0 -9.75853 -4.3690414 -9.75853 -9.75853z" fill-rule="evenodd"/><path fill="#b6d7a8" d="m33.695538 31.986383l0 0c0 -5.8359528 4.730976 -10.566929 10.566929 -10.566929l0 0c2.8025246 0 5.490265 1.1132984 7.4719467 3.0949821c1.9816856 1.9816837 3.0949821 4.669424 3.0949821 7.4719467l0 0c0 5.8359547 -4.730976 10.566931 -10.566929 10.566931l0 0c-5.8359528 0 -10.566929 -4.730976 -10.566929 -10.566931z" fill-rule="evenodd"/><path stroke="#b6d7a8" stroke-width="1.0" stroke-linejoin="round" stroke-linecap="butt" d="m33.695538 31.986383l0 0c0 -5.8359528 4.730976 -10.566929 10.566929 -10.566929l0 0c2.8025246 0 5.490265 1.1132984 7.4719467 3.0949821c1.9816856 1.9816837 3.0949821 4.669424 3.0949821 7.4719467l0 0c0 5.8359547 -4.730976 10.566931 -10.566929 10.566931l0 0c-5.8359528 0 -10.566929 -4.730976 -10.566929 -10.566931z" fill-rule="evenodd"/><path fill="#b6d7a8" d="m111.96063 31.986383l0 0c0 -5.8359528 4.7309723 -10.566929 10.566925 -10.566929l0 0c2.8025284 0 5.490265 1.1132984 7.4719543 3.0949821c1.9816742 1.9816837 3.0949707 4.669424 3.0949707 7.4719467l0 0c0 5.8359547 -4.7309723 10.566931 -10.566925 10.566931l0 0c-5.8359528 0 -10.566925 -4.730976 -10.566925 -10.566931z" fill-rule="evenodd"/><path stroke="#b6d7a8" stroke-width="1.0" stroke-linejoin="round" stroke-linecap="butt" d="m111.96063 31.986383l0 0c0 -5.8359528 4.7309723 -10.566929 10.566925 -10.566929l0 0c2.8025284 0 5.490265 1.1132984 7.4719543 3.0949821c1.9816742 1.9816837 3.0949707 4.669424 3.0949707 7.4719467l0 0c0 5.8359547 -4.7309723 10.566931 -10.566925 10.566931l0 0c-5.8359528 0 -10.566925 -4.730976 -10.566925 -10.566931z" fill-rule="evenodd"/><path fill="#ffffff" d="m54.610237 59.60533l0 0c0 -6.479561 4.730976 -11.732281 10.566925 -11.732281l0 0c2.8025284 0 5.490265 1.2360725 7.4719467 3.436306c1.9816895 2.2002296 3.094986 5.1843796 3.094986 8.295975l0 0c0 6.479561 -4.7309723 11.732285 -10.566933 11.732285l0 0c-5.835949 0 -10.566925 -5.2527237 -10.566925 -11.732285z" fill-rule="evenodd"/><path stroke="#ffffff" stroke-width="1.0" stroke-linejoin="round" stroke-linecap="butt" d="m54.610237 59.60533l0 0c0 -6.479561 4.730976 -11.732281 10.566925 -11.732281l0 0c2.8025284 0 5.490265 1.2360725 7.4719467 3.436306c1.9816895 2.2002296 3.094986 5.1843796 3.094986 8.295975l0 0c0 6.479561 -4.7309723 11.732285 -10.566933 11.732285l0 0c-5.835949 0 -10.566925 -5.2527237 -10.566925 -11.732285z" fill-rule="evenodd"/><path fill="#6aa84f" d="m40.305775 94.6295l0 0c0 -4.2443314 3.4407082 -7.6850433 7.6850395 -7.6850433l0 0c2.0382004 0 3.99292 0.8096771 5.434143 2.2509003c1.4412231 1.4412231 2.2508965 3.3959427 2.2508965 5.434143l0 0c0 4.2443314 -3.4407082 7.6850357 -7.6850395 7.6850357l0 0c-4.2443314 0 -7.6850395 -3.4407043 -7.6850395 -7.6850357z" fill-rule="evenodd"/><path stroke="#6aa84f" stroke-width="1.0" stroke-linejoin="round" stroke-linecap="butt" d="m40.305775 94.6295l0 0c0 -4.2443314 3.4407082 -7.6850433 7.6850395 -7.6850433l0 0c2.0382004 0 3.99292 0.8096771 5.434143 2.2509003c1.4412231 1.4412231 2.2508965 3.3959427 2.2508965 5.434143l0 0c0 4.2443314 -3.4407082 7.6850357 -7.6850395 7.6850357l0 0c-4.2443314 0 -7.6850395 -3.4407043 -7.6850395 -7.6850357z" fill-rule="evenodd"/><path fill="#000000" d="m60.452755 61.422783l0 0c0 -2.870144 2.1151924 -5.19685 4.724407 -5.19685l0 0c1.2529907 0 2.4546661 0.5475235 3.3406677 1.5221214c0.88599396 0.97459793 1.3837433 2.2964363 1.3837433 3.6747284l0 0c0 2.87014 -2.1151886 5.196846 -4.724411 5.196846l0 0c-2.6092148 0 -4.724407 -2.326706 -4.724407 -5.196846z" fill-rule="evenodd"/><path stroke="#000000" stroke-width="1.0" stroke-linejoin="round" stroke-linecap="butt" d="m60.452755 61.422783l0 0c0 -2.870144 2.1151924 -5.19685 4.724407 -5.19685l0 0c1.2529907 0 2.4546661 0.5475235 3.3406677 1.5221214c0.88599396 0.97459793 1.3837433 2.2964363 1.3837433 3.6747284l0 0c0 2.87014 -2.1151886 5.196846 -4.724411 5.196846l0 0c-2.6092148 0 -4.724407 -2.326706 -4.724407 -5.196846z" fill-rule="evenodd"/><path fill="#6aa84f" d="m54.610237 59.951614l0 -6.031494l0 0c0 -3.3311043 4.730976 -6.031498 10.566925 -6.031498c5.8359604 0 10.566933 2.7003937 10.566933 6.031498l0 6.031494z" fill-rule="evenodd"/><path stroke="#6aa84f" stroke-width="1.0" stroke-linejoin="round" stroke-linecap="butt" d="m54.610237 59.951614l0 -6.031494l0 0c0 -3.3311043 4.730976 -6.031498 10.566925 -6.031498c5.8359604 0 10.566933 2.7003937 10.566933 6.031498l0 6.031494z" fill-rule="evenodd"/><path fill="#ffffff" d="m91.70998 59.60533l0 0c0 -6.479561 4.7309723 -11.732281 10.566925 -11.732281l0 0c2.8025284 0 5.490265 1.2360725 7.4719467 3.436306c1.9816895 2.2002296 3.094986 5.1843796 3.094986 8.295975l0 0c0 6.479561 -4.73098 11.732285 -10.566933 11.732285l0 0c-5.8359528 0 -10.566925 -5.2527237 -10.566925 -11.732285z" fill-rule="evenodd"/><path stroke="#ffffff" stroke-width="1.0" stroke-linejoin="round" stroke-linecap="butt" d="m91.70998 59.60533l0 0c0 -6.479561 4.7309723 -11.732281 10.566925 -11.732281l0 0c2.8025284 0 5.490265 1.2360725 7.4719467 3.436306c1.9816895 2.2002296 3.094986 5.1843796 3.094986 8.295975l0 0c0 6.479561 -4.73098 11.732285 -10.566933 11.732285l0 0c-5.8359528 0 -10.566925 -5.2527237 -10.566925 -11.732285z" fill-rule="evenodd"/><path fill="#000000" d="m97.55249 61.422783l0 0c0 -2.870144 2.1151962 -5.19685 4.724411 -5.19685l0 0c1.2529907 0 2.4546661 0.5475235 3.34066 1.5221214c0.8860016 0.97459793 1.3837509 2.2964363 1.3837509 3.6747284l0 0c0 2.87014 -2.1151886 5.196846 -4.724411 5.196846l0 0c-2.6092148 0 -4.724411 -2.326706 -4.724411 -5.196846z" fill-rule="evenodd"/><path stroke="#000000" stroke-width="1.0" stroke-linejoin="round" stroke-linecap="butt" d="m97.55249 61.422783l0 0c0 -2.870144 2.1151962 -5.19685 4.724411 -5.19685l0 0c1.2529907 0 2.4546661 0.5475235 3.34066 1.5221214c0.8860016 0.97459793 1.3837509 2.2964363 1.3837509 3.6747284l0 0c0 2.87014 -2.1151886 5.196846 -4.724411 5.196846l0 0c-2.6092148 0 -4.724411 -2.326706 -4.724411 -5.196846z" fill-rule="evenodd"/><path fill="#6aa84f" d="m91.70998 59.951614l0 -6.031494l0 0c0 -3.3311043 4.7309723 -6.031498 10.566925 -6.031498c5.8359528 0 10.566933 2.7003937 10.566933 6.031498l0 6.031494z" fill-rule="evenodd"/><path stroke="#6aa84f" stroke-width="1.0" stroke-linejoin="round" stroke-linecap="butt" d="m91.70998 59.951614l0 -6.031494l0 0c0 -3.3311043 4.7309723 -6.031498 10.566925 -6.031498c5.8359528 0 10.566933 2.7003937 10.566933 6.031498l0 6.031494z" fill-rule="evenodd"/><path fill="#6aa84f" d="m37.140438 87.76902l0 0c-0.26092148 -3.6355057 4.4912033 -7.012764 10.614174 -7.5433044c6.122967 -0.53054047 11.298134 1.9865341 11.559055 5.6220474l0 0c-0.60731506 -3.4488602 -5.6594315 -5.7414474 -11.531113 -5.2326813c-5.871681 0.5087662 -10.534306 3.6431198 -10.642117 7.1539383z" fill-rule="evenodd"/><path stroke="#6aa84f" stroke-width="1.0" stroke-linejoin="round" stroke-linecap="butt" d="m37.140438 87.76902l0 0c-0.26092148 -3.6355057 4.4912033 -7.012764 10.614174 -7.5433044c6.122967 -0.53054047 11.298134 1.9865341 11.559055 5.6220474l0 0c-0.60731506 -3.4488602 -5.6594315 -5.7414474 -11.531113 -5.2326813c-5.871681 0.5087662 -10.534306 3.6431198 -10.642117 7.1539383z" fill-rule="evenodd"/><path fill="#6aa84f" d="m105.21654 94.6295l0 0c0 -4.2443314 3.4407043 -7.6850433 7.6850357 -7.6850433l0 0c2.0382004 0 3.99292 0.8096771 5.434143 2.2509003c1.4412231 1.4412231 2.2509003 3.3959427 2.2509003 5.434143l0 0c0 4.2443314 -3.440712 7.6850357 -7.6850433 7.6850357l0 0c-4.2443314 0 -7.6850357 -3.4407043 -7.6850357 -7.6850357z" fill-rule="evenodd"/><path stroke="#6aa84f" stroke-width="1.0" stroke-linejoin="round" stroke-linecap="butt" d="m105.21654 94.6295l0 0c0 -4.2443314 3.4407043 -7.6850433 7.6850357 -7.6850433l0 0c2.0382004 0 3.99292 0.8096771 5.434143 2.2509003c1.4412231 1.4412231 2.2509003 3.3959427 2.2509003 5.434143l0 0c0 4.2443314 -3.440712 7.6850357 -7.6850433 7.6850357l0 0c-4.2443314 0 -7.6850357 -3.4407043 -7.6850357 -7.6850357z" fill-rule="evenodd"/><path fill="#6aa84f" d="m102.12991 87.89501l0 0c-0.2609253 -3.6355133 4.455948 -7.0057144 10.535431 -7.5275574c6.079483 -0.52184296 11.219391 2.0022812 11.480316 5.6377945l0 0c-0.6047745 -3.4493637 -5.6223907 -5.7488556 -11.45237 -5.2484283c-5.829979 0.50042725 -10.458107 3.6278763 -10.563377 7.138191z" fill-rule="evenodd"/><path stroke="#6aa84f" stroke-width="1.0" stroke-linejoin="round" stroke-linecap="butt" d="m102.12991 87.89501l0 0c-0.2609253 -3.6355133 4.455948 -7.0057144 10.535431 -7.5275574c6.079483 -0.52184296 11.219391 2.0022812 11.480316 5.6377945l0 0c-0.6047745 -3.4493637 -5.6223907 -5.7488556 -11.45237 -5.2484283c-5.829979 0.50042725 -10.458107 3.6278763 -10.563377 7.138191z" fill-rule="evenodd"/></g></svg>