<svg version="1.1" viewBox="0.0 0.0 480.5459317585302 480.5459317585302" fill="none" stroke="none" stroke-linecap="square" stroke-miterlimit="10" xmlns:xlink="http://www.w3.org/1999/xlink" xmlns="http://www.w3.org/2000/svg"><clipPath id="p.0"><path d="m0 0l480.54593 0l0 480.54593l-480.54593 0l0 -480.54593z" clip-rule="nonzero"/></clipPath><g clip-path="url(#p.0)"><path fill="#000000" fill-opacity="0.0" d="m0 0l480.54593 0l0 480.54593l-480.54593 0z" fill-rule="evenodd"/><path fill="#ab0000" d="m208.63945 316.65707l0 0c0 -13.254822 10.745163 -24.0 24.0 -24.0l0 0c6.3651886 0 12.469681 2.5285645 16.97055 7.0294495c4.500885 4.500885 7.029434 10.605377 7.029434 16.97055l0 0c0 13.254852 -10.745163 24.0 -23.999985 24.0l0 0c-13.254837 0 -24.0 -10.745148 -24.0 -24.0z" fill-rule="evenodd"/><path fill="#ab0000" d="m271.90717 310.7752l0 0c0 -13.254852 10.745148 -24.0 24.0 -24.0l0 0c6.365204 0 12.469696 2.5285645 16.97055 7.029419c4.500885 4.500885 7.0294495 10.605377 7.0294495 16.970581l0 0c0 13.254822 -10.745178 24.0 -24.0 24.0l0 0c-13.254852 0 -24.0 -10.745178 -24.0 -24.0z" fill-rule="evenodd"/><path fill="#ab0000" d="m241.51608 369.6282l0 0c0 -13.254822 10.745163 -24.0 24.0 -24.0l0 0c6.365204 0 12.469696 2.5285645 16.97055 7.0294495c4.500885 4.500885 7.0294495 10.605377 7.0294495 16.97055l0 0c0 13.254852 -10.745178 24.0 -24.0 24.0l0 0c-13.254837 0 -24.0 -10.745148 -24.0 -24.0z" fill-rule="evenodd"/><path fill="#ab0000" d="m160.63945 355.0298l0 0c0 -13.254822 10.745163 -24.0 24.0 -24.0l0 0c6.3651886 0 12.469681 2.5285645 16.97055 7.0294495c4.500885 4.5008545 7.0294495 10.605347 7.0294495 16.97055l0 0c0 13.254852 -10.745178 24.0 -24.0 24.0l0 0c-13.254837 0 -24.0 -10.745148 -24.0 -24.0z" fill-rule="evenodd"/><path fill="#ab0000" d="m228.87567 251.92218l0 0c0 -13.254837 10.745163 -24.0 24.0 -24.0l0 0c6.365204 0 12.469696 2.5285645 16.97055 7.029434c4.500885 4.5008698 7.0294495 10.605362 7.0294495 16.970566l0 0c0 13.254822 -10.745178 24.0 -24.0 24.0l0 0c-13.254837 0 -24.0 -10.745178 -24.0 -24.0z" fill-rule="evenodd"/><path fill="#ab0000" d="m160.63945 276.7411l0 0c0 -13.254852 10.745163 -24.000015 24.0 -24.000015l0 0c6.3651886 0 12.469681 2.5285645 16.97055 7.029434c4.500885 4.500885 7.0294495 10.605377 7.0294495 16.970581l0 0c0 13.254822 -10.745178 24.0 -24.0 24.0l0 0c-13.254837 0 -24.0 -10.745178 -24.0 -24.0z" fill-rule="evenodd"/></g></svg>