<svg version="1.1" viewBox="0.0 0.0 183.06561679790028 148.3727034120735" fill="none" stroke="none" stroke-linecap="square" stroke-miterlimit="10" xmlns:xlink="http://www.w3.org/1999/xlink" xmlns="http://www.w3.org/2000/svg"><clipPath id="p.0"><path d="m0 0l183.06561 0l0 148.3727l-183.06561 0l0 -148.3727z" clip-rule="nonzero"/></clipPath><g clip-path="url(#p.0)"><path fill="#000000" fill-opacity="0.0" d="m0 0l183.06561 0l0 148.3727l-183.06561 0z" fill-rule="evenodd"/><path fill="#6c4a23" d="m0.24671917 0l182.83464 0l0 147.84251l-182.83464 0z" fill-rule="evenodd"/><path fill="#000000" fill-opacity="0.0" d="m81.931175 61.756817c4.2780075 -2.1568642 18.023201 -14.210014 25.66803 -12.941174c7.644829 1.2688408 15.002235 19.208176 20.200943 20.554214c5.1987076 1.3460464 6.22863 -12.513618 10.991295 -12.47797c4.7626495 0.035648346 12.065079 12.176258 17.584656 12.691868c5.519577 0.51560974 12.943985 -7.9985046 15.532791 -9.598206" fill-rule="evenodd"/><path stroke="#785125" stroke-width="4.0" stroke-linejoin="round" stroke-linecap="butt" d="m81.931175 61.756817c4.2780075 -2.1568642 18.023201 -14.210014 25.66803 -12.941174c7.644829 1.2688408 15.002235 19.208176 20.200943 20.554214c5.1987076 1.3460464 6.22863 -12.513618 10.991295 -12.47797c4.7626495 0.035648346 12.065079 12.176258 17.584656 12.691868c5.519577 0.51560974 12.943985 -7.9985046 15.532791 -9.598206" fill-rule="evenodd"/><path fill="#000000" fill-opacity="0.0" d="m25.897049 101.273415c2.8012276 4.2987747 10.074631 24.062256 16.807365 25.792664c6.7327385 1.7304153 16.361038 -15.074059 23.589058 -15.410225c7.228012 -0.33616638 13.564827 11.602768 19.779053 13.393234c6.2142334 1.7904587 12.366646 -4.162903 17.506325 -2.6504745c5.139679 1.5124207 11.109787 9.770851 13.331741 11.725014" fill-rule="evenodd"/><path stroke="#503619" stroke-width="4.0" stroke-linejoin="round" stroke-linecap="butt" d="m25.897049 101.273415c2.8012276 4.2987747 10.074631 24.062256 16.807365 25.792664c6.7327385 1.7304153 16.361038 -15.074059 23.589058 -15.410225c7.228012 -0.33616638 13.564827 11.602768 19.779053 13.393234c6.2142334 1.7904587 12.366646 -4.162903 17.506325 -2.6504745c5.139679 1.5124207 11.109787 9.770851 13.331741 11.725014" fill-rule="evenodd"/><path fill="#000000" fill-opacity="0.0" d="m81.931175 56.210884c4.2780075 -2.1568604 18.023201 -14.210014 25.66803 -12.941174c7.644829 1.2688408 15.002235 19.20818 20.200943 20.554218c5.1987076 1.3460388 6.22863 -12.513622 10.991295 -12.477974c4.7626495 0.03565216 12.065079 12.176262 17.584656 12.691872c5.519577 0.51560974 12.943985 -7.9985085 15.532791 -9.598209" fill-rule="evenodd"/><path stroke="#503619" stroke-width="4.0" stroke-linejoin="round" stroke-linecap="butt" d="m81.931175 56.210884c4.2780075 -2.1568604 18.023201 -14.210014 25.66803 -12.941174c7.644829 1.2688408 15.002235 19.20818 20.200943 20.554218c5.1987076 1.3460388 6.22863 -12.513622 10.991295 -12.477974c4.7626495 0.03565216 12.065079 12.176262 17.584656 12.691872c5.519577 0.51560974 12.943985 -7.9985085 15.532791 -9.598209" fill-rule="evenodd"/><path fill="#000000" fill-opacity="0.0" d="m25.897049 96.47289c2.8012276 4.2987747 10.074631 24.062256 16.807365 25.792664c6.7327385 1.7304077 16.361038 -15.074059 23.589058 -15.410225c7.228012 -0.33616638 13.564827 11.602768 19.779053 13.393227c6.2142334 1.7904587 12.366646 -4.162895 17.506325 -2.6504745c5.139679 1.5124283 11.109787 9.770851 13.331741 11.725021" fill-rule="evenodd"/><path stroke="#785125" stroke-width="4.0" stroke-linejoin="round" stroke-linecap="butt" d="m25.897049 96.47289c2.8012276 4.2987747 10.074631 24.062256 16.807365 25.792664c6.7327385 1.7304077 16.361038 -15.074059 23.589058 -15.410225c7.228012 -0.33616638 13.564827 11.602768 19.779053 13.393227c6.2142334 1.7904587 12.366646 -4.162895 17.506325 -2.6504745c5.139679 1.5124283 11.109787 9.770851 13.331741 11.725021" fill-rule="evenodd"/><path fill="#000000" fill-opacity="0.0" d="m22.228346 25.878046c2.4107609 1.5384159 8.840334 9.61524 14.464567 9.23049c5.6242332 -0.38474655 16.067368 -9.615818 19.280842 -11.538982" fill-rule="evenodd"/><path stroke="#503619" stroke-width="4.0" stroke-linejoin="round" stroke-linecap="butt" d="m22.228346 25.878046c2.4107609 1.5384159 8.840334 9.61524 14.464567 9.23049c5.6242332 -0.38474655 16.067368 -9.615818 19.280842 -11.538982" fill-rule="evenodd"/><path fill="#000000" fill-opacity="0.0" d="m22.228346 20.720566c2.4107609 1.5384159 8.840334 9.615238 14.464567 9.23049c5.6242332 -0.38474846 16.067368 -9.615818 19.280842 -11.538982" fill-rule="evenodd"/><path stroke="#785125" stroke-width="4.0" stroke-linejoin="round" stroke-linecap="butt" d="m22.228346 20.720566c2.4107609 1.5384159 8.840334 9.615238 14.464567 9.23049c5.6242332 -0.38474846 16.067368 -9.615818 19.280842 -11.538982" fill-rule="evenodd"/></g></svg>