<svg version="1.1" viewBox="0.0 0.0 480.5459317585302 480.5459317585302" fill="none" stroke="none" stroke-linecap="square" stroke-miterlimit="10" xmlns:xlink="http://www.w3.org/1999/xlink" xmlns="http://www.w3.org/2000/svg"><clipPath id="p.0"><path d="m0 0l480.54593 0l0 480.54593l-480.54593 0l0 -480.54593z" clip-rule="nonzero"/></clipPath><g clip-path="url(#p.0)"><path fill="#000000" fill-opacity="0.0" d="m0 0l480.54593 0l0 480.54593l-480.54593 0z" fill-rule="evenodd"/><path fill="#3278a3" d="m0 0l480.0 0l0 480.0l-480.0 0z" fill-rule="evenodd"/><path stroke="#3278a3" stroke-width="1.0" stroke-linejoin="round" stroke-linecap="butt" d="m0 0l480.0 0l0 480.0l-480.0 0z" fill-rule="evenodd"/><path fill="#275f82" d="m260.84912 220.95938l0 0c0.34786987 20.247543 -29.546814 37.190216 -66.77167 37.84253c-37.22487 0.65231323 -67.6836 -15.232773 -68.031494 -35.480316l0 0c6.2805023 17.58751 34.854813 29.937378 67.9263 29.35785c33.071487 -0.57951355 61.20433 -13.92308 66.87686 -31.720062z" fill-rule="evenodd"/><path stroke="#275f82" stroke-width="1.0" stroke-linejoin="round" stroke-linecap="butt" d="m260.84912 220.95938l0 0c0.34786987 20.247543 -29.546814 37.190216 -66.77167 37.84253c-37.22487 0.65231323 -67.6836 -15.232773 -68.031494 -35.480316l0 0c6.2805023 17.58751 34.854813 29.937378 67.9263 29.35785c33.071487 -0.57951355 61.20433 -13.92308 66.87686 -31.720062z" fill-rule="evenodd"/><path fill="#275f82" d="m398.63568 220.0163l0 0c0.3479004 20.247543 -29.546783 37.190216 -66.77164 37.84253c-37.224854 0.6522827 -67.68359 -15.232788 -68.031494 -35.48033l0 0c6.280487 17.587524 34.854797 29.937378 67.9263 29.357864c33.071472 -0.5795288 61.204315 -13.923096 66.87683 -31.720062z" fill-rule="evenodd"/><path stroke="#275f82" stroke-width="1.0" stroke-linejoin="round" stroke-linecap="butt" d="m398.63568 220.0163l0 0c0.3479004 20.247543 -29.546783 37.190216 -66.77164 37.84253c-37.224854 0.6522827 -67.68359 -15.232788 -68.031494 -35.48033l0 0c6.280487 17.587524 34.854797 29.937378 67.9263 29.357864c33.071472 -0.5795288 61.204315 -13.923096 66.87683 -31.720062z" fill-rule="evenodd"/><path fill="#275f82" d="m349.34555 359.31494l0 0c0.15652466 19.777893 -13.740265 36.325745 -31.039398 36.960632c-17.299103 0.6349182 -31.449738 -14.883514 -31.606293 -34.661407l0 0c2.914215 17.179932 16.190002 29.245056 31.55896 28.68097c15.368988 -0.5640564 28.446106 -13.5963745 31.086731 -30.980194z" fill-rule="evenodd"/><path stroke="#275f82" stroke-width="1.0" stroke-linejoin="round" stroke-linecap="butt" d="m349.34555 359.31494l0 0c0.15652466 19.777893 -13.740265 36.325745 -31.039398 36.960632c-17.299103 0.6349182 -31.449738 -14.883514 -31.606293 -34.661407l0 0c2.914215 17.179932 16.190002 29.245056 31.55896 28.68097c15.368988 -0.5640564 28.446106 -13.5963745 31.086731 -30.980194z" fill-rule="evenodd"/><path fill="#275f82" d="m413.38327 358.3941l0 0c0.15655518 19.777893 -13.740265 36.325745 -31.039368 36.960632c-17.299133 0.6349182 -31.449768 -14.883514 -31.606323 -34.661407l0 0c2.914215 17.179932 16.190002 29.245056 31.55896 28.68097c15.368988 -0.5640564 28.446106 -13.5963745 31.086731 -30.980194z" fill-rule="evenodd"/><path stroke="#275f82" stroke-width="1.0" stroke-linejoin="round" stroke-linecap="butt" d="m413.38327 358.3941l0 0c0.15655518 19.777893 -13.740265 36.325745 -31.039368 36.960632c-17.299133 0.6349182 -31.449768 -14.883514 -31.606323 -34.661407l0 0c2.914215 17.179932 16.190002 29.245056 31.55896 28.68097c15.368988 -0.5640564 28.446106 -13.5963745 31.086731 -30.980194z" fill-rule="evenodd"/><path fill="#275f82" d="m159.4971 91.244095l0 0c0.2609253 19.777885 -22.272903 36.32572 -50.330704 36.960632c-28.057808 0.63490295 -51.014668 -14.883537 -51.275593 -34.661423l0 0c4.7327194 17.179924 26.269451 29.245049 51.196697 28.680977c24.927238 -0.564064 46.132866 -13.59639 50.4096 -30.980186z" fill-rule="evenodd"/><path stroke="#275f82" stroke-width="1.0" stroke-linejoin="round" stroke-linecap="butt" d="m159.4971 91.244095l0 0c0.2609253 19.777885 -22.272903 36.32572 -50.330704 36.960632c-28.057808 0.63490295 -51.014668 -14.883537 -51.275593 -34.661423l0 0c4.7327194 17.179924 26.269451 29.245049 51.196697 28.680977c24.927238 -0.564064 46.132866 -13.59639 50.4096 -30.980186z" fill-rule="evenodd"/><path fill="#275f82" d="m263.3607 90.32325l0 0c0.2609253 19.777878 -22.272903 36.325714 -50.330704 36.960625c-28.0578 0.6349106 -51.014664 -14.88353 -51.27559 -34.661415l0 0c4.732712 17.179924 26.26944 29.245049 51.196686 28.680977c24.927246 -0.56407166 46.132874 -13.596397 50.409607 -30.980186z" fill-rule="evenodd"/><path stroke="#275f82" stroke-width="1.0" stroke-linejoin="round" stroke-linecap="butt" d="m263.3607 90.32325l0 0c0.2609253 19.777878 -22.272903 36.325714 -50.330704 36.960625c-28.0578 0.6349106 -51.014664 -14.88353 -51.27559 -34.661415l0 0c4.732712 17.179924 26.26944 29.245049 51.196686 28.680977c24.927246 -0.56407166 46.132874 -13.596397 50.409607 -30.980186z" fill-rule="evenodd"/><path fill="#275f82" d="m426.8849 114.790054l0 0c0.15655518 19.777878 -19.415985 36.537247 -43.716522 37.433075c-24.300537 0.89582825 -44.126923 -14.411102 -44.283478 -34.18898c4.0382996 17.138031 22.646942 29.004425 44.236145 28.208542c21.589172 -0.7958832 39.999176 -14.026947 43.763855 -31.452637z" fill-rule="evenodd"/><path stroke="#275f82" stroke-width="1.0" stroke-linejoin="round" stroke-linecap="butt" d="m426.8849 114.790054l0 0c0.15655518 19.777878 -19.415985 36.537247 -43.716522 37.433075c-24.300537 0.89582825 -44.126923 -14.411102 -44.283478 -34.18898c4.0382996 17.138031 22.646942 29.004425 44.236145 28.208542c21.589172 -0.7958832 39.999176 -14.026947 43.763855 -31.452637z" fill-rule="evenodd"/><path fill="#275f82" d="m133.92558 333.51968l0 0c0.15655518 19.777893 -13.740242 36.325714 -31.039368 36.960632c-17.299118 0.6349182 -31.449745 -14.883545 -31.606293 -34.661438l0 0c2.9141922 17.179932 16.189987 29.245056 31.55896 28.681c15.368965 -0.5640869 28.446106 -13.596405 31.0867 -30.980194z" fill-rule="evenodd"/><path stroke="#275f82" stroke-width="1.0" stroke-linejoin="round" stroke-linecap="butt" d="m133.92558 333.51968l0 0c0.15655518 19.777893 -13.740242 36.325714 -31.039368 36.960632c-17.299118 0.6349182 -31.449745 -14.883545 -31.606293 -34.661438l0 0c2.9141922 17.179932 16.189987 29.245056 31.55896 28.681c15.368965 -0.5640869 28.446106 -13.596405 31.0867 -30.980194z" fill-rule="evenodd"/></g></svg>