<svg version="1.1" viewBox="0.0 0.0 163.8503937007874 163.1994750656168" fill="none" stroke="none" stroke-linecap="square" stroke-miterlimit="10" xmlns:xlink="http://www.w3.org/1999/xlink" xmlns="http://www.w3.org/2000/svg"><clipPath id="p.0"><path d="m0 0l163.85039 0l0 163.19948l-163.85039 0l0 -163.19948z" clip-rule="nonzero"/></clipPath><g clip-path="url(#p.0)"><path fill="#000000" fill-opacity="0.0" d="m0 0l163.85039 0l0 163.19948l-163.85039 0z" fill-rule="evenodd"/><path fill="#3278a3" d="m0.2965879 0l163.2126 0l0 163.2126l-163.2126 0z" fill-rule="evenodd"/><path fill="#275f82" d="m5.002966 42.498558l0 0c-1.9482169 -2.6787987 5.906189 -13.078484 17.543306 -23.228346c11.637119 -10.149863 22.650208 -16.206358 24.598427 -13.527559l0 0c-5.0701637 1.2760835 -14.242538 7.2443852 -23.375032 15.209724c-9.132497 7.9653397 -16.496557 16.420067 -18.7667 21.54618z" fill-rule="evenodd"/><path fill="#275f82" d="m117.511375 7.4679046l0 0c3.391983 -4.0877767 14.785805 1.1649451 25.448814 11.732283c10.66301 10.567339 16.557343 22.447659 13.1653595 26.535435c0.73721313 -5.5262375 -5.2434387 -15.874054 -14.445114 -24.993168c-9.20166 -9.119115 -19.208282 -14.61512 -24.16906 -13.2745495z" fill-rule="evenodd"/><path fill="#e69138" fill-opacity="0.6962" d="m9.734908 82.52351l0 0c0 -37.033524 31.981674 -67.05512 71.43307 -67.05512l0 0c18.945229 0 37.11451 7.0647144 50.51081 19.63999c13.396301 12.575272 20.922256 29.631004 20.922256 47.41513l0 0c0 37.033516 -31.981667 67.055115 -71.43307 67.055115l0 0c-39.451393 0 -71.43307 -30.021599 -71.43307 -67.055115z" fill-rule="evenodd"/><path fill="#f6b26b" d="m28.035488 103.88215l0 0c0 -20.934639 23.67603 -37.905518 52.881893 -37.905518l0 0c29.205856 0 52.88189 16.970879 52.88189 37.905518l0 0c0 20.934631 -23.676033 37.90551 -52.88189 37.90551l0 0c-29.205864 0 -52.881893 -16.970879 -52.881893 -37.90551z" fill-rule="evenodd"/><path stroke="#f6b26b" stroke-width="1.0" stroke-linejoin="round" stroke-linecap="butt" d="m28.035488 103.88215l0 0c0 -20.934639 23.67603 -37.905518 52.881893 -37.905518l0 0c29.205856 0 52.88189 16.970879 52.88189 37.905518l0 0c0 20.934631 -23.676033 37.90551 -52.88189 37.90551l0 0c-29.205864 0 -52.881893 -16.970879 -52.881893 -37.90551z" fill-rule="evenodd"/><path fill="#ea5e5e" d="m38.424683 100.91222l0 0c0 -17.768784 19.043762 -32.173225 42.53543 -32.173225l0 0c23.491676 0 42.53544 14.404442 42.53544 32.173225l0 0c0 17.768784 -19.043762 32.173233 -42.53544 32.173233l0 0c-23.491669 0 -42.53543 -14.404449 -42.53543 -32.173233z" fill-rule="evenodd"/><path stroke="#ea5e5e" stroke-width="1.0" stroke-linejoin="round" stroke-linecap="butt" d="m38.424683 100.91222l0 0c0 -17.768784 19.043762 -32.173225 42.53543 -32.173225l0 0c23.491676 0 42.53544 14.404442 42.53544 32.173225l0 0c0 17.768784 -19.043762 32.173233 -42.53544 32.173233l0 0c-23.491669 0 -42.53543 -14.404449 -42.53543 -32.173233z" fill-rule="evenodd"/><path fill="#ffffff" d="m64.431465 111.674255l-4.691723 0l0 0c-0.8062477 0 -1.5794754 -0.32028198 -2.149578 -0.8903885c-0.5701065 -0.5700989 -0.8903847 -1.3433304 -0.8903847 -2.1495743l0 -7.2277527c0 -5.340576E-5 3.8146973E-5 -9.1552734E-5 8.773804E-5 -9.1552734E-5l10.771568 9.1552734E-5l0 0c4.5776367E-5 0 8.392334E-5 3.8146973E-5 8.392334E-5 8.392334E-5l-8.392334E-5 7.227669l0 0c0 1.6789246 -1.3610382 3.0399628 -3.0399704 3.0399628z" fill-rule="evenodd"/><path stroke="#ffffff" stroke-width="1.0" stroke-linejoin="round" stroke-linecap="butt" d="m64.431465 111.674255l-4.691723 0l0 0c-0.8062477 0 -1.5794754 -0.32028198 -2.149578 -0.8903885c-0.5701065 -0.5700989 -0.8903847 -1.3433304 -0.8903847 -2.1495743l0 -7.2277527c0 -5.340576E-5 3.8146973E-5 -9.1552734E-5 8.773804E-5 -9.1552734E-5l10.771568 9.1552734E-5l0 0c4.5776367E-5 0 8.392334E-5 3.8146973E-5 8.392334E-5 8.392334E-5l-8.392334E-5 7.227669l0 0c0 1.6789246 -1.3610382 3.0399628 -3.0399704 3.0399628z" fill-rule="evenodd"/><path fill="#ffffff" d="m104.63188 111.674255l-4.6917267 0l0 0c-0.8062515 0 -1.5794754 -0.32028198 -2.149582 -0.8903885c-0.5700989 -0.5700989 -0.89038086 -1.3433304 -0.89038086 -2.1495743l0 -7.2277527c0 -5.340576E-5 3.8146973E-5 -9.1552734E-5 9.1552734E-5 -9.1552734E-5l10.771561 9.1552734E-5l0 0c5.340576E-5 0 9.1552734E-5 3.8146973E-5 9.1552734E-5 8.392334E-5l-9.1552734E-5 7.227669l0 0c0 1.6789246 -1.3610382 3.0399628 -3.0399628 3.0399628z" fill-rule="evenodd"/><path stroke="#ffffff" stroke-width="1.0" stroke-linejoin="round" stroke-linecap="butt" d="m104.63188 111.674255l-4.6917267 0l0 0c-0.8062515 0 -1.5794754 -0.32028198 -2.149582 -0.8903885c-0.5700989 -0.5700989 -0.89038086 -1.3433304 -0.89038086 -2.1495743l0 -7.2277527c0 -5.340576E-5 3.8146973E-5 -9.1552734E-5 9.1552734E-5 -9.1552734E-5l10.771561 9.1552734E-5l0 0c5.340576E-5 0 9.1552734E-5 3.8146973E-5 9.1552734E-5 8.392334E-5l-9.1552734E-5 7.227669l0 0c0 1.6789246 -1.3610382 3.0399628 -3.0399628 3.0399628z" fill-rule="evenodd"/><path fill="#f6b26b" d="m17.219267 78.76535l0 0c0 -13.863655 13.847445 -25.102364 30.929136 -25.102364l0 0c17.081684 0 30.929134 11.2387085 30.929134 25.102364l0 0c0 13.863655 -13.84745 25.102364 -30.929134 25.102364l0 0c-17.081692 0 -30.929136 -11.2387085 -30.929136 -25.102364z" fill-rule="evenodd"/><path stroke="#f6b26b" stroke-width="1.0" stroke-linejoin="round" stroke-linecap="butt" d="m17.219267 78.76535l0 0c0 -13.863655 13.847445 -25.102364 30.929136 -25.102364l0 0c17.081684 0 30.929134 11.2387085 30.929134 25.102364l0 0c0 13.863655 -13.84745 25.102364 -30.929134 25.102364l0 0c-17.081692 0 -30.929136 -11.2387085 -30.929136 -25.102364z" fill-rule="evenodd"/><path fill="#f6b26b" d="m83.95198 78.76535l0 0c0 -13.863655 13.84745 -25.102364 30.929138 -25.102364l0 0c17.08168 0 30.929138 11.2387085 30.929138 25.102364l0 0c0 13.863655 -13.847458 25.102364 -30.929138 25.102364l0 0c-17.081688 0 -30.929138 -11.2387085 -30.929138 -25.102364z" fill-rule="evenodd"/><path stroke="#f6b26b" stroke-width="1.0" stroke-linejoin="round" stroke-linecap="butt" d="m83.95198 78.76535l0 0c0 -13.863655 13.84745 -25.102364 30.929138 -25.102364l0 0c17.08168 0 30.929138 11.2387085 30.929138 25.102364l0 0c0 13.863655 -13.847458 25.102364 -30.929138 25.102364l0 0c-17.081688 0 -30.929138 -11.2387085 -30.929138 -25.102364z" fill-rule="evenodd"/><path fill="#000000" d="m103.40154 85.96535l0 -1.421875l6.609375 -7.578125q-1.125 0.046875 -1.984375 0.046875l-4.234375 0l0 -1.421875l8.484375 0l0 1.171875l-5.625 6.578125l-1.078125 1.203125q1.171875 -0.09375 2.21875 -0.09375l4.796875 0l0 1.515625l-9.1875 0z" fill-rule="nonzero"/><path fill="#f6b26b" d="m42.394215 61.799473l0 0c0 -4.493656 3.642826 -8.136486 8.136482 -8.136486l60.829395 0c2.1579285 0 4.227478 0.85723495 5.7533646 2.3831215c1.5258865 1.5258865 2.3831177 3.5954323 2.3831177 5.7533646l0 32.545933c0 4.4936523 -3.6428223 8.136482 -8.136482 8.136482l-60.829395 0c-4.493656 0 -8.136482 -3.64283 -8.136482 -8.136482z" fill-rule="evenodd"/><path stroke="#f6b26b" stroke-width="1.0" stroke-linejoin="round" stroke-linecap="butt" d="m42.394215 61.799473l0 0c0 -4.493656 3.642826 -8.136486 8.136482 -8.136486l60.829395 0c2.1579285 0 4.227478 0.85723495 5.7533646 2.3831215c1.5258865 1.5258865 2.3831177 3.5954323 2.3831177 5.7533646l0 32.545933c0 4.4936523 -3.6428223 8.136482 -8.136482 8.136482l-60.829395 0c-4.493656 0 -8.136482 -3.64283 -8.136482 -8.136482z" fill-rule="evenodd"/><path fill="#f6b26b" d="m51.307343 35.841244l59.722786 0l0 0c7.823845 0 14.166321 8.327927 14.166321 18.600945c0 10.273022 -6.342476 18.600948 -14.166321 18.600948l-59.722786 0l0 0c-7.823845 0 -14.166325 -8.327927 -14.166325 -18.600948c0 -10.273018 6.3424797 -18.600945 14.166325 -18.600945z" fill-rule="evenodd"/><path stroke="#f6b26b" stroke-width="1.0" stroke-linejoin="round" stroke-linecap="butt" d="m51.307343 35.841244l59.722786 0l0 0c7.823845 0 14.166321 8.327927 14.166321 18.600945c0 10.273022 -6.342476 18.600948 -14.166321 18.600948l-59.722786 0l0 0c-7.823845 0 -14.166325 -8.327927 -14.166325 -18.600948c0 -10.273018 6.3424797 -18.600945 14.166325 -18.600945z" fill-rule="evenodd"/><path fill="#f6b26b" d="m33.067772 28.05411l0 0c0 -6.0359955 4.949547 -10.929134 11.055119 -10.929134l0 0c2.9319992 0 5.7439117 1.1514587 7.81715 3.2010689c2.0732346 2.0496101 3.2379684 4.8294773 3.2379684 7.7280655l0 0c0 6.0359936 -4.949547 10.929132 -11.055119 10.929132l0 0c-6.1055717 0 -11.055119 -4.893139 -11.055119 -10.929132z" fill-rule="evenodd"/><path stroke="#f6b26b" stroke-width="1.0" stroke-linejoin="round" stroke-linecap="butt" d="m33.067772 28.05411l0 0c0 -6.0359955 4.949547 -10.929134 11.055119 -10.929134l0 0c2.9319992 0 5.7439117 1.1514587 7.81715 3.2010689c2.0732346 2.0496101 3.2379684 4.8294773 3.2379684 7.7280655l0 0c0 6.0359936 -4.949547 10.929132 -11.055119 10.929132l0 0c-6.1055717 0 -11.055119 -4.893139 -11.055119 -10.929132z" fill-rule="evenodd"/><path fill="#f6b26b" d="m111.689606 28.05411l0 0c0 -6.0359955 4.949539 -10.929134 11.055115 -10.929134l0 0c2.9319992 0 5.7439117 1.1514587 7.817154 3.2010689c2.073227 2.0496101 3.2379608 4.8294773 3.2379608 7.7280655l0 0c0 6.0359936 -4.949539 10.929132 -11.055115 10.929132l0 0c-6.1055756 0 -11.055115 -4.893139 -11.055115 -10.929132z" fill-rule="evenodd"/><path stroke="#f6b26b" stroke-width="1.0" stroke-linejoin="round" stroke-linecap="butt" d="m111.689606 28.05411l0 0c0 -6.0359955 4.949539 -10.929134 11.055115 -10.929134l0 0c2.9319992 0 5.7439117 1.1514587 7.817154 3.2010689c2.073227 2.0496101 3.2379608 4.8294773 3.2379608 7.7280655l0 0c0 6.0359936 -4.949539 10.929132 -11.055115 10.929132l0 0c-6.1055756 0 -11.055115 -4.893139 -11.055115 -10.929132z" fill-rule="evenodd"/><path fill="#ffffff" d="m91.235 57.904377l0 0c0 -6.688301 5.323227 -12.110237 11.889763 -12.110237l0 0c3.1533585 0 6.1775665 1.2758942 8.407333 3.5470047c2.2297592 2.2711105 3.4824295 5.3513985 3.4824295 8.563232l0 0c0 6.6882973 -5.323227 12.110233 -11.889763 12.110233l0 0c-6.566536 0 -11.889763 -5.421936 -11.889763 -12.110233z" fill-rule="evenodd"/><path stroke="#ffffff" stroke-width="1.0" stroke-linejoin="round" stroke-linecap="butt" d="m91.235 57.904377l0 0c0 -6.688301 5.323227 -12.110237 11.889763 -12.110237l0 0c3.1533585 0 6.1775665 1.2758942 8.407333 3.5470047c2.2297592 2.2711105 3.4824295 5.3513985 3.4824295 8.563232l0 0c0 6.6882973 -5.323227 12.110233 -11.889763 12.110233l0 0c-6.566536 0 -11.889763 -5.421936 -11.889763 -12.110233z" fill-rule="evenodd"/><path fill="#000000" d="m93.7495 61.58685l0 0c0 -3.9573174 3.1163788 -7.1653557 6.9606247 -7.1653557l0 0c1.846077 0 3.616539 0.75491714 4.921913 2.0986824c1.3053665 1.3437653 2.0387192 3.1663017 2.0387192 5.0666733l0 0c0 3.9573174 -3.1163788 7.1653557 -6.9606323 7.1653557l0 0c-3.844246 0 -6.9606247 -3.2080383 -6.9606247 -7.1653557z" fill-rule="evenodd"/><path stroke="#000000" stroke-width="1.0" stroke-linejoin="round" stroke-linecap="butt" d="m93.7495 61.58685l0 0c0 -3.9573174 3.1163788 -7.1653557 6.9606247 -7.1653557l0 0c1.846077 0 3.616539 0.75491714 4.921913 2.0986824c1.3053665 1.3437653 2.0387192 3.1663017 2.0387192 5.0666733l0 0c0 3.9573174 -3.1163788 7.1653557 -6.9606323 7.1653557l0 0c-3.844246 0 -6.9606247 -3.2080383 -6.9606247 -7.1653557z" fill-rule="evenodd"/><path fill="#ffffff" d="m49.35823 57.904377l0 0c0 -6.688301 5.3232307 -12.110237 11.889763 -12.110237l0 0c3.153366 0 6.177574 1.2758942 8.407333 3.5470047c2.2297668 2.2711105 3.4824295 5.3513985 3.4824295 8.563232l0 0c0 6.6882973 -5.323227 12.110233 -11.889763 12.110233l0 0c-6.566532 0 -11.889763 -5.421936 -11.889763 -12.110233z" fill-rule="evenodd"/><path stroke="#ffffff" stroke-width="1.0" stroke-linejoin="round" stroke-linecap="butt" d="m49.35823 57.904377l0 0c0 -6.688301 5.3232307 -12.110237 11.889763 -12.110237l0 0c3.153366 0 6.177574 1.2758942 8.407333 3.5470047c2.2297668 2.2711105 3.4824295 5.3513985 3.4824295 8.563232l0 0c0 6.6882973 -5.323227 12.110233 -11.889763 12.110233l0 0c-6.566532 0 -11.889763 -5.421936 -11.889763 -12.110233z" fill-rule="evenodd"/><path fill="#000000" d="m56.15367 61.58685l0 0c0 -3.9573174 3.1163788 -7.1653557 6.9606285 -7.1653557l0 0c1.8460732 0 3.6165352 0.75491714 4.9219093 2.0986824c1.3053665 1.3437653 2.0387192 3.1663017 2.0387192 5.0666733l0 0c0 3.9573174 -3.1163788 7.1653557 -6.9606285 7.1653557l0 0c-3.8442497 0 -6.9606285 -3.2080383 -6.9606285 -7.1653557z" fill-rule="evenodd"/><path stroke="#000000" stroke-width="1.0" stroke-linejoin="round" stroke-linecap="butt" d="m56.15367 61.58685l0 0c0 -3.9573174 3.1163788 -7.1653557 6.9606285 -7.1653557l0 0c1.8460732 0 3.6165352 0.75491714 4.9219093 2.0986824c1.3053665 1.3437653 2.0387192 3.1663017 2.0387192 5.0666733l0 0c0 3.9573174 -3.1163788 7.1653557 -6.9606285 7.1653557l0 0c-3.8442497 0 -6.9606285 -3.2080383 -6.9606285 -7.1653557z" fill-rule="evenodd"/><path fill="#e69138" d="m41.422752 87.15309l0 0c0 -3.6529007 3.01062 -6.6141663 6.724407 -6.6141663l0 0c1.7834244 0 3.493805 0.696846 4.754879 1.9372406c1.2610703 1.2404022 1.969532 2.9227448 1.969532 4.6769257l0 0c0 3.6529083 -3.01062 6.614174 -6.724411 6.614174l0 0c-3.713787 0 -6.724407 -2.9612656 -6.724407 -6.614174z" fill-rule="evenodd"/><path stroke="#e69138" stroke-width="1.0" stroke-linejoin="round" stroke-linecap="butt" d="m41.422752 87.15309l0 0c0 -3.6529007 3.01062 -6.6141663 6.724407 -6.6141663l0 0c1.7834244 0 3.493805 0.696846 4.754879 1.9372406c1.2610703 1.2404022 1.969532 2.9227448 1.969532 4.6769257l0 0c0 3.6529083 -3.01062 6.614174 -6.724411 6.614174l0 0c-3.713787 0 -6.724407 -2.9612656 -6.724407 -6.614174z" fill-rule="evenodd"/><path fill="#ffffff" d="m74.68736 124.55995l2.5435028 0l0 0c0.48968506 0 0.95931244 0.19452667 1.3055725 0.54078674c0.34626007 0.34626007 0.54078674 0.81588745 0.54078674 1.3055725l0 6.6575775c0 3.0517578E-5 -2.2888184E-5 6.1035156E-5 -5.340576E-5 6.1035156E-5l-6.236168 -6.1035156E-5l0 0c-3.0517578E-5 0 -5.340576E-5 -1.5258789E-5 -5.340576E-5 -4.5776367E-5l5.340576E-5 -6.6575317l0 0c0 -1.0197144 0.8266449 -1.8463593 1.8463593 -1.8463593z" fill-rule="evenodd"/><path stroke="#ffffff" stroke-width="1.0" stroke-linejoin="round" stroke-linecap="butt" d="m74.68736 124.55995l2.5435028 0l0 0c0.48968506 0 0.95931244 0.19452667 1.3055725 0.54078674c0.34626007 0.34626007 0.54078674 0.81588745 0.54078674 1.3055725l0 6.6575775c0 3.0517578E-5 -2.2888184E-5 6.1035156E-5 -5.340576E-5 6.1035156E-5l-6.236168 -6.1035156E-5l0 0c-3.0517578E-5 0 -5.340576E-5 -1.5258789E-5 -5.340576E-5 -4.5776367E-5l5.340576E-5 -6.6575317l0 0c0 -1.0197144 0.8266449 -1.8463593 1.8463593 -1.8463593z" fill-rule="evenodd"/><path fill="#ffffff" d="m84.608444 124.55995l2.5435028 0l0 0c0.48968506 0 0.95931244 0.19452667 1.3055725 0.54078674c0.34626007 0.34626007 0.54078674 0.81588745 0.54078674 1.3055725l0 6.6575775c0 3.0517578E-5 -2.2888184E-5 6.1035156E-5 -5.340576E-5 6.1035156E-5l-6.236168 -6.1035156E-5l0 0c-3.0517578E-5 0 -5.340576E-5 -1.5258789E-5 -5.340576E-5 -4.5776367E-5l5.340576E-5 -6.6575317l0 0c0 -1.0197144 0.8266449 -1.8463593 1.8463593 -1.8463593z" fill-rule="evenodd"/><path stroke="#ffffff" stroke-width="1.0" stroke-linejoin="round" stroke-linecap="butt" d="m84.608444 124.55995l2.5435028 0l0 0c0.48968506 0 0.95931244 0.19452667 1.3055725 0.54078674c0.34626007 0.34626007 0.54078674 0.81588745 0.54078674 1.3055725l0 6.6575775c0 3.0517578E-5 -2.2888184E-5 6.1035156E-5 -5.340576E-5 6.1035156E-5l-6.236168 -6.1035156E-5l0 0c-3.0517578E-5 0 -5.340576E-5 -1.5258789E-5 -5.340576E-5 -4.5776367E-5l5.340576E-5 -6.6575317l0 0c0 -1.0197144 0.8266449 -1.8463593 1.8463593 -1.8463593z" fill-rule="evenodd"/><path fill="#e69138" d="m105.80901 87.1791l0 0c0 -3.6529083 3.01062 -6.614174 6.724411 -6.614174l0 0c1.7834244 0 3.4937973 0.696846 4.754875 1.9372406c1.2610703 1.2404022 1.9695282 2.9227448 1.9695282 4.6769333l0 0c0 3.6529007 -3.01062 6.6141663 -6.7244034 6.6141663l0 0c-3.713791 0 -6.724411 -2.9612656 -6.724411 -6.6141663z" fill-rule="evenodd"/><path stroke="#e69138" stroke-width="1.0" stroke-linejoin="round" stroke-linecap="butt" d="m105.80901 87.1791l0 0c0 -3.6529083 3.01062 -6.614174 6.724411 -6.614174l0 0c1.7834244 0 3.4937973 0.696846 4.754875 1.9372406c1.2610703 1.2404022 1.9695282 2.9227448 1.9695282 4.6769333l0 0c0 3.6529007 -3.01062 6.6141663 -6.7244034 6.6141663l0 0c-3.713791 0 -6.724411 -2.9612656 -6.724411 -6.6141663z" fill-rule="evenodd"/><path fill="#e69138" d="m102.49479 79.7222l0 0c-0.2783203 -3.7572708 3.9309082 -7.1768265 9.401573 -7.6377945c5.470665 -0.4609604 10.131134 2.2112274 10.409447 5.968506l0 0c-0.58586884 -3.5694733 -5.1334915 -6.0081406 -10.379639 -5.5660934c-5.246147 0.4420395 -9.378311 3.6120758 -9.431381 7.235382z" fill-rule="evenodd"/><path stroke="#e69138" stroke-width="1.0" stroke-linejoin="round" stroke-linecap="butt" d="m102.49479 79.7222l0 0c-0.2783203 -3.7572708 3.9309082 -7.1768265 9.401573 -7.6377945c5.470665 -0.4609604 10.131134 2.2112274 10.409447 5.968506l0 0c-0.58586884 -3.5694733 -5.1334915 -6.0081406 -10.379639 -5.5660934c-5.246147 0.4420395 -9.378311 3.6120758 -9.431381 7.235382z" fill-rule="evenodd"/><path fill="#e69138" d="m38.21131 79.77711l0 0c-0.2783165 -3.7572784 4.057823 -7.1838837 9.6850395 -7.6535416c5.6272163 -0.46966553 10.414597 2.1954803 10.692913 5.952751l0 0c-0.59501266 -3.568962 -5.2668304 -6.0007324 -10.663105 -5.5503464c-5.3962746 0.45038605 -9.652634 3.6273193 -9.714848 7.251137z" fill-rule="evenodd"/><path stroke="#e69138" stroke-width="1.0" stroke-linejoin="round" stroke-linecap="butt" d="m38.21131 79.77711l0 0c-0.2783165 -3.7572784 4.057823 -7.1838837 9.6850395 -7.6535416c5.6272163 -0.46966553 10.414597 2.1954803 10.692913 5.952751l0 0c-0.59501266 -3.568962 -5.2668304 -6.0007324 -10.663105 -5.5503464c-5.3962746 0.45038605 -9.652634 3.6273193 -9.714848 7.251137z" fill-rule="evenodd"/><path fill="#275f82" d="m45.985466 154.07713l0 0c-3.7050896 3.7398834 -15.500801 -3.7408295 -26.346457 -16.708649c-10.8456545 -12.967827 -16.634224 -26.512093 -12.929132 -30.251976c-0.5787802 5.961685 5.3670335 17.679405 14.530357 28.635704c9.163322 10.956314 19.289059 18.454865 24.745232 18.32492z" fill-rule="evenodd"/><path fill="#275f82" d="m155.80217 110.07561l0 0c3.409378 4.0355988 -3.3310242 17.036964 -15.055115 29.039368c-11.724091 12.002411 -23.992195 18.4608 -27.401573 14.425201l0 0c5.1855316 1.0125275 15.997917 -5.5902557 26.115257 -15.947769c10.11734 -10.357513 16.883118 -21.750175 16.34143 -27.5168z" fill-rule="evenodd"/><path fill="#275f82" d="m156.25552 131.07954l0 0c1.3567963 1.6177216 -2.5845032 8.083145 -8.803146 14.4409485c-6.218643 6.357788 -12.359741 10.200394 -13.716537 8.582672l0 0c3.2868347 -1.4972992 8.044937 -5.233017 12.610809 -9.901047c4.565857 -4.668045 8.30452 -9.619247 9.9088745 -13.122574z" fill-rule="evenodd"/><path fill="#275f82" d="m6.1088533 27.352365l0 0c-1.5655317 -2.1917439 2.5661402 -8.671276 9.228347 -14.472441c6.6622066 -5.8011637 13.332106 -8.727177 14.897638 -6.535433l0 0c-3.5906925 0.92249155 -8.730253 4.062273 -13.621794 8.321617c-4.8915396 4.259344 -8.854816 9.045923 -10.504191 12.686256z" fill-rule="evenodd"/></g></svg>