<svg version="1.1" viewBox="0.0 0.0 146.85826771653544 132.56430446194227" fill="none" stroke="none" stroke-linecap="square" stroke-miterlimit="10" xmlns:xlink="http://www.w3.org/1999/xlink" xmlns="http://www.w3.org/2000/svg"><clipPath id="p.0"><path d="m0 0l146.85826 0l0 132.5643l-146.85826 0l0 -132.5643z" clip-rule="nonzero"/></clipPath><g clip-path="url(#p.0)"><path fill="#000000" fill-opacity="0.0" d="m0 0l146.85826 0l0 132.5643l-146.85826 0z" fill-rule="evenodd"/><path fill="#275f82" d="m8.839717 42.344234l0 0c-1.9482174 -2.5918236 6.949683 -12.547319 19.874016 -22.23622c12.924334 -9.688902 24.980917 -15.442219 26.929136 -12.850395l0 0c-4.9920425 0.6292863 -15.373493 6.329263 -25.899477 14.220209c-10.525982 7.8909454 -18.904936 16.25496 -20.903675 20.866405z" fill-rule="evenodd"/><path fill="#275f82" d="m94.46272 8.741837l0 0c2.9571152 -3.757276 15.126511 0.86793995 27.181099 10.330709c12.054588 9.462769 19.429558 20.179731 16.472435 23.937006c0.09635925 -5.0298843 -7.185562 -14.353512 -17.588112 -22.519434c-10.40255 -8.165924 -21.194305 -13.030015 -26.065422 -11.7482815z" fill-rule="evenodd"/><path fill="#999999" fill-opacity="0.7176" d="m8.813648 70.2231l0 0c0 -31.319332 29.034512 -56.708664 64.85039 -56.708664l0 0c35.815887 0 64.850395 25.389332 64.850395 56.708664l0 0c0 31.319328 -29.034508 56.708656 -64.850395 56.708656l0 0c-35.81588 0 -64.85039 -25.389328 -64.85039 -56.708656z" fill-rule="evenodd"/><path fill="#cccccc" d="m25.442257 87.20473l0 0c0 -18.23845 21.589043 -33.023624 48.22047 -33.023624l0 0c26.631432 0 48.220474 14.785175 48.220474 33.023624l0 0c0 18.238441 -21.589043 33.02362 -48.220474 33.02362l0 0c-26.631428 0 -48.22047 -14.785179 -48.22047 -33.02362z" fill-rule="evenodd"/><path stroke="#cccccc" stroke-width="1.0" stroke-linejoin="round" stroke-linecap="butt" d="m25.442257 87.20473l0 0c0 -18.23845 21.589043 -33.023624 48.22047 -33.023624l0 0c26.631432 0 48.220474 14.785175 48.220474 33.023624l0 0c0 18.238441 -21.589043 33.02362 -48.220474 33.02362l0 0c-26.631428 0 -48.22047 -14.785179 -48.22047 -33.02362z" fill-rule="evenodd"/><path fill="#ea5e5e" d="m32.801838 84.61942l0 0c0 -15.481369 18.204735 -28.031498 40.66142 -28.031498l0 0c22.45668 0 40.661415 12.550129 40.661415 28.031498l0 0c0 15.481369 -18.204735 28.031494 -40.661415 28.031494l0 0c-22.456684 0 -40.66142 -12.550125 -40.66142 -28.031494z" fill-rule="evenodd"/><path stroke="#ea5e5e" stroke-width="1.0" stroke-linejoin="round" stroke-linecap="butt" d="m32.801838 84.61942l0 0c0 -15.481369 18.204735 -28.031498 40.66142 -28.031498l0 0c22.45668 0 40.661415 12.550129 40.661415 28.031498l0 0c0 15.481369 -18.204735 28.031494 -40.661415 28.031494l0 0c-22.456684 0 -40.66142 -12.550125 -40.66142 -28.031494z" fill-rule="evenodd"/><path fill="#ffffff" d="m57.92518 93.99213l-5.00259 0l0 0c-0.7023735 0 -1.3759842 -0.2790146 -1.8726387 -0.7756729c-0.4966545 -0.49665833 -0.7756729 -1.1702652 -0.7756729 -1.8726425l0 -6.29657c0 -4.5776367E-5 3.8146973E-5 -8.392334E-5 8.773804E-5 -8.392334E-5l10.299126 8.392334E-5l0 0c4.9591064E-5 0 8.773804E-5 3.8146973E-5 8.773804E-5 9.1552734E-5l-8.773804E-5 6.2964783l0 0c0 1.4626236 -1.185688 2.6483154 -2.6483116 2.6483154z" fill-rule="evenodd"/><path stroke="#ffffff" stroke-width="1.0" stroke-linejoin="round" stroke-linecap="butt" d="m57.92518 93.99213l-5.00259 0l0 0c-0.7023735 0 -1.3759842 -0.2790146 -1.8726387 -0.7756729c-0.4966545 -0.49665833 -0.7756729 -1.1702652 -0.7756729 -1.8726425l0 -6.29657c0 -4.5776367E-5 3.8146973E-5 -8.392334E-5 8.773804E-5 -8.392334E-5l10.299126 8.392334E-5l0 0c4.9591064E-5 0 8.773804E-5 3.8146973E-5 8.773804E-5 9.1552734E-5l-8.773804E-5 6.2964783l0 0c0 1.4626236 -1.185688 2.6483154 -2.6483116 2.6483154z" fill-rule="evenodd"/><path fill="#ffffff" d="m96.36088 93.99213l-5.002594 0l0 0c-0.7023773 0 -1.3759842 -0.2790146 -1.8726349 -0.7756729c-0.49665833 -0.49665833 -0.7756729 -1.1702652 -0.7756729 -1.8726425l0 -6.29657c0 -4.5776367E-5 3.8146973E-5 -8.392334E-5 8.392334E-5 -8.392334E-5l10.299126 8.392334E-5l0 0c4.5776367E-5 0 8.392334E-5 3.8146973E-5 8.392334E-5 9.1552734E-5l-8.392334E-5 6.2964783l0 0c0 1.4626236 -1.1856918 2.6483154 -2.6483078 2.6483154z" fill-rule="evenodd"/><path stroke="#ffffff" stroke-width="1.0" stroke-linejoin="round" stroke-linecap="butt" d="m96.36088 93.99213l-5.002594 0l0 0c-0.7023773 0 -1.3759842 -0.2790146 -1.8726349 -0.7756729c-0.49665833 -0.49665833 -0.7756729 -1.1702652 -0.7756729 -1.8726425l0 -6.29657c0 -4.5776367E-5 3.8146973E-5 -8.392334E-5 8.392334E-5 -8.392334E-5l10.299126 8.392334E-5l0 0c4.5776367E-5 0 8.392334E-5 3.8146973E-5 8.392334E-5 9.1552734E-5l-8.392334E-5 6.2964783l0 0c0 1.4626236 -1.1856918 2.6483154 -2.6483078 2.6483154z" fill-rule="evenodd"/><path fill="#cccccc" d="m15.1797905 65.32809l0 0c0 -12.080688 13.241091 -21.87402 29.574802 -21.87402l0 0c16.333714 0 29.574806 9.793331 29.574806 21.87402l0 0c0 12.080681 -13.241093 21.874016 -29.574806 21.874016l0 0c-16.333712 0 -29.574802 -9.793335 -29.574802 -21.874016z" fill-rule="evenodd"/><path stroke="#cccccc" stroke-width="1.0" stroke-linejoin="round" stroke-linecap="butt" d="m15.1797905 65.32809l0 0c0 -12.080688 13.241091 -21.87402 29.574802 -21.87402l0 0c16.333714 0 29.574806 9.793331 29.574806 21.87402l0 0c0 12.080681 -13.241093 21.874016 -29.574806 21.874016l0 0c-16.333712 0 -29.574802 -9.793335 -29.574802 -21.874016z" fill-rule="evenodd"/><path fill="#cccccc" d="m72.526245 65.32809l0 0c0 -12.080688 13.241089 -21.87402 29.574806 -21.87402l0 0c16.33371 0 29.574806 9.793331 29.574806 21.87402l0 0c0 12.080681 -13.2410965 21.874016 -29.574806 21.874016l0 0c-16.333717 0 -29.574806 -9.793335 -29.574806 -21.874016z" fill-rule="evenodd"/><path stroke="#cccccc" stroke-width="1.0" stroke-linejoin="round" stroke-linecap="butt" d="m72.526245 65.32809l0 0c0 -12.080688 13.241089 -21.87402 29.574806 -21.87402l0 0c16.33371 0 29.574806 9.793331 29.574806 21.87402l0 0c0 12.080681 -13.2410965 21.874016 -29.574806 21.874016l0 0c-16.333717 0 -29.574806 -9.793335 -29.574806 -21.874016z" fill-rule="evenodd"/><path fill="#000000" d="m90.54788 72.248085l0 -1.328125l6.15625 -7.078129q-1.046875 0.0625 -1.84375 0.0625l-3.9375 0l0 -1.328125l7.90625 0l0 1.078125l-5.25 6.140629l-1.0 1.125q1.09375 -0.078125 2.0625 -0.078125l4.46875 0l0 1.40625l-8.5625 0z" fill-rule="nonzero"/><path fill="#cccccc" d="m36.597115 50.545933l0 0c0 -3.916729 3.1751328 -7.0918655 7.0918617 -7.0918655l59.548557 0c1.8808746 0 3.684723 0.7471771 5.014702 2.07716c1.3299866 1.3299828 2.0771637 3.1338272 2.0771637 5.0147057l0 28.36745c0 3.9167328 -3.1751404 7.0918655 -7.0918655 7.0918655l-59.548557 0c-3.916729 0 -7.0918617 -3.1751328 -7.0918617 -7.0918655z" fill-rule="evenodd"/><path stroke="#cccccc" stroke-width="1.0" stroke-linejoin="round" stroke-linecap="butt" d="m36.597115 50.545933l0 0c0 -3.916729 3.1751328 -7.0918655 7.0918617 -7.0918655l59.548557 0c1.8808746 0 3.684723 0.7471771 5.014702 2.07716c1.3299866 1.3299828 2.0771637 3.1338272 2.0771637 5.0147057l0 28.36745c0 3.9167328 -3.1751404 7.0918655 -7.0918655 7.0918655l-59.548557 0c-3.916729 0 -7.0918617 -3.1751328 -7.0918617 -7.0918655z" fill-rule="evenodd"/><path fill="#cccccc" d="m46.427494 27.930447l57.10039 0l0 0c7.4803085 0 13.544296 7.2555237 13.544296 16.20567c0 8.950142 -6.0639877 16.20567 -13.544296 16.20567l-57.10039 0l0 0c-7.4803047 0 -13.544292 -7.2555275 -13.544292 -16.20567c0 -8.950146 6.0639877 -16.20567 13.544292 -16.20567z" fill-rule="evenodd"/><path stroke="#cccccc" stroke-width="1.0" stroke-linejoin="round" stroke-linecap="butt" d="m46.427494 27.930447l57.10039 0l0 0c7.4803085 0 13.544296 7.2555237 13.544296 16.20567c0 8.950142 -6.0639877 16.20567 -13.544296 16.20567l-57.10039 0l0 0c-7.4803047 0 -13.544292 -7.2555275 -13.544292 -16.20567c0 -8.950146 6.0639877 -16.20567 13.544292 -16.20567z" fill-rule="evenodd"/><path fill="#cccccc" d="m26.400263 21.153543l0 0c0 -5.9316254 4.730974 -10.740158 10.566927 -10.740158l0 0c2.8025246 0 5.490265 1.1315498 7.4719505 3.1457195c1.9816818 2.0141706 3.0949821 4.7459717 3.0949821 7.5944386l0 0c0 5.9316254 -4.730976 10.740158 -10.566933 10.740158l0 0c-5.8359528 0 -10.566927 -4.8085327 -10.566927 -10.740158z" fill-rule="evenodd"/><path stroke="#cccccc" stroke-width="1.0" stroke-linejoin="round" stroke-linecap="butt" d="m26.400263 21.153543l0 0c0 -5.9316254 4.730974 -10.740158 10.566927 -10.740158l0 0c2.8025246 0 5.490265 1.1315498 7.4719505 3.1457195c1.9816818 2.0141706 3.0949821 4.7459717 3.0949821 7.5944386l0 0c0 5.9316254 -4.730976 10.740158 -10.566933 10.740158l0 0c-5.8359528 0 -10.566927 -4.8085327 -10.566927 -10.740158z" fill-rule="evenodd"/><path fill="#cccccc" d="m104.426506 21.153543l0 0c0 -5.9316254 4.73098 -10.740158 10.566933 -10.740158l0 0c2.8025208 0 5.490265 1.1315498 7.4719467 3.1457195c1.9816818 2.0141706 3.0949783 4.7459717 3.0949783 7.5944386l0 0c0 5.9316254 -4.7309723 10.740158 -10.566925 10.740158l0 0c-5.8359528 0 -10.566933 -4.8085327 -10.566933 -10.740158z" fill-rule="evenodd"/><path stroke="#cccccc" stroke-width="1.0" stroke-linejoin="round" stroke-linecap="butt" d="m104.426506 21.153543l0 0c0 -5.9316254 4.73098 -10.740158 10.566933 -10.740158l0 0c2.8025208 0 5.490265 1.1315498 7.4719467 3.1457195c1.9816818 2.0141706 3.0949783 4.7459717 3.0949783 7.5944386l0 0c0 5.9316254 -4.7309723 10.740158 -10.566925 10.740158l0 0c-5.8359528 0 -10.566933 -4.8085327 -10.566933 -10.740158z" fill-rule="evenodd"/><path fill="#ffffff" d="m83.29265 47.150917l0 0c0 -5.8272552 4.73098 -10.551178 10.566933 -10.551178l0 0c2.8025208 0 5.490265 1.1116371 7.4719467 3.0903664c1.9816818 1.9787331 3.0949783 4.662464 3.0949783 7.4608116l0 0c0 5.827259 -4.7309723 10.551182 -10.566925 10.551182l0 0c-5.8359528 0 -10.566933 -4.7239227 -10.566933 -10.551182z" fill-rule="evenodd"/><path stroke="#ffffff" stroke-width="1.0" stroke-linejoin="round" stroke-linecap="butt" d="m83.29265 47.150917l0 0c0 -5.8272552 4.73098 -10.551178 10.566933 -10.551178l0 0c2.8025208 0 5.490265 1.1116371 7.4719467 3.0903664c1.9816818 1.9787331 3.0949783 4.662464 3.0949783 7.4608116l0 0c0 5.827259 -4.7309723 10.551182 -10.566925 10.551182l0 0c-5.8359528 0 -10.566933 -4.7239227 -10.566933 -10.551182z" fill-rule="evenodd"/><path fill="#000000" d="m85.69685 50.352142l0 0c0 -3.444172 2.7779465 -6.2362213 6.2047195 -6.2362213l0 0c1.6455994 0 3.223793 0.6570282 4.3874054 1.8265457c1.1636124 1.1695175 1.8173218 2.7557259 1.8173218 4.4096756l0 0c0 3.444168 -2.777954 6.2362213 -6.204727 6.2362213l0 0c-3.426773 0 -6.2047195 -2.7920532 -6.2047195 -6.2362213z" fill-rule="evenodd"/><path stroke="#000000" stroke-width="1.0" stroke-linejoin="round" stroke-linecap="butt" d="m85.69685 50.352142l0 0c0 -3.444172 2.7779465 -6.2362213 6.2047195 -6.2362213l0 0c1.6455994 0 3.223793 0.6570282 4.3874054 1.8265457c1.1636124 1.1695175 1.8173218 2.7557259 1.8173218 4.4096756l0 0c0 3.444168 -2.777954 6.2362213 -6.204727 6.2362213l0 0c-3.426773 0 -6.2047195 -2.7920532 -6.2047195 -6.2362213z" fill-rule="evenodd"/><path fill="#ffffff" d="m44.856956 47.150917l0 0c0 -5.8272552 4.730976 -10.551178 10.566929 -10.551178l0 0c2.8025246 0 5.490261 1.1116371 7.4719467 3.0903664c1.9816856 1.9787331 3.0949821 4.662464 3.0949821 7.4608116l0 0c0 5.827259 -4.730976 10.551182 -10.566929 10.551182l0 0c-5.8359528 0 -10.566929 -4.7239227 -10.566929 -10.551182z" fill-rule="evenodd"/><path stroke="#ffffff" stroke-width="1.0" stroke-linejoin="round" stroke-linecap="butt" d="m44.856956 47.150917l0 0c0 -5.8272552 4.730976 -10.551178 10.566929 -10.551178l0 0c2.8025246 0 5.490261 1.1116371 7.4719467 3.0903664c1.9816856 1.9787331 3.0949821 4.662464 3.0949821 7.4608116l0 0c0 5.827259 -4.730976 10.551182 -10.566929 10.551182l0 0c-5.8359528 0 -10.566929 -4.7239227 -10.566929 -10.551182z" fill-rule="evenodd"/><path fill="#000000" d="m50.654854 50.352142l0 0c0 -3.444172 2.7779503 -6.2362213 6.204727 -6.2362213l0 0c1.6455956 0 3.2237892 0.6570282 4.3874016 1.8265457c1.1636124 1.1695175 1.8173218 2.7557259 1.8173218 4.4096756l0 0c0 3.444168 -2.7779503 6.2362213 -6.2047234 6.2362213l0 0c-3.426777 0 -6.204727 -2.7920532 -6.204727 -6.2362213z" fill-rule="evenodd"/><path stroke="#000000" stroke-width="1.0" stroke-linejoin="round" stroke-linecap="butt" d="m50.654854 50.352142l0 0c0 -3.444172 2.7779503 -6.2362213 6.204727 -6.2362213l0 0c1.6455956 0 3.2237892 0.6570282 4.3874016 1.8265457c1.1636124 1.1695175 1.8173218 2.7557259 1.8173218 4.4096756l0 0c0 3.444168 -2.7779503 6.2362213 -6.2047234 6.2362213l0 0c-3.426777 0 -6.204727 -2.7920532 -6.204727 -6.2362213z" fill-rule="evenodd"/><path fill="#999999" d="m38.990814 74.908066l0 0c0 -3.1832504 2.580532 -5.7637787 5.7637787 -5.7637787l0 0c1.5286484 0 2.99469 0.607254 4.0756073 1.6881714c1.0809174 1.0809174 1.6881714 2.546959 1.6881714 4.0756073l0 0c0 3.1832428 -2.580532 5.7637787 -5.7637787 5.7637787l0 0c-3.1832466 0 -5.7637787 -2.580536 -5.7637787 -5.7637787z" fill-rule="evenodd"/><path stroke="#999999" stroke-width="1.0" stroke-linejoin="round" stroke-linecap="butt" d="m38.990814 74.908066l0 0c0 -3.1832504 2.580532 -5.7637787 5.7637787 -5.7637787l0 0c1.5286484 0 2.99469 0.607254 4.0756073 1.6881714c1.0809174 1.0809174 1.6881714 2.546959 1.6881714 4.0756073l0 0c0 3.1832428 -2.580532 5.7637787 -5.7637787 5.7637787l0 0c-3.1832466 0 -5.7637787 -2.580536 -5.7637787 -5.7637787z" fill-rule="evenodd"/><path fill="#ffffff" d="m67.46978 105.21785l2.4278946 0l0 0c0.4674225 0 0.9157028 0.1856842 1.2462234 0.51620483c0.33052063 0.33052063 0.51620483 0.77880096 0.51620483 1.2462234l0 5.670639c0 3.0517578E-5 -2.2888184E-5 5.340576E-5 -4.5776367E-5 5.340576E-5l-5.9527054 -5.340576E-5l0 0c-3.0517578E-5 0 -5.340576E-5 -2.2888184E-5 -5.340576E-5 -4.5776367E-5l5.340576E-5 -5.6705933l0 0c0 -0.9733658 0.7890625 -1.7624283 1.7624283 -1.7624283z" fill-rule="evenodd"/><path stroke="#ffffff" stroke-width="1.0" stroke-linejoin="round" stroke-linecap="butt" d="m67.46978 105.21785l2.4278946 0l0 0c0.4674225 0 0.9157028 0.1856842 1.2462234 0.51620483c0.33052063 0.33052063 0.51620483 0.77880096 0.51620483 1.2462234l0 5.670639c0 3.0517578E-5 -2.2888184E-5 5.340576E-5 -4.5776367E-5 5.340576E-5l-5.9527054 -5.340576E-5l0 0c-3.0517578E-5 0 -5.340576E-5 -2.2888184E-5 -5.340576E-5 -4.5776367E-5l5.340576E-5 -5.6705933l0 0c0 -0.9733658 0.7890625 -1.7624283 1.7624283 -1.7624283z" fill-rule="evenodd"/><path fill="#ffffff" d="m76.955345 105.21785l2.4278946 0l0 0c0.4674225 0 0.9157028 0.1856842 1.2462234 0.51620483c0.33052063 0.33052063 0.51620483 0.77880096 0.51620483 1.2462234l0 5.670639c0 3.0517578E-5 -2.2888184E-5 5.340576E-5 -4.5776367E-5 5.340576E-5l-5.9527054 -5.340576E-5l0 0c-3.0517578E-5 0 -5.340576E-5 -2.2888184E-5 -5.340576E-5 -4.5776367E-5l5.340576E-5 -5.6705933l0 0c0 -0.9733658 0.7890625 -1.7624283 1.7624283 -1.7624283z" fill-rule="evenodd"/><path stroke="#ffffff" stroke-width="1.0" stroke-linejoin="round" stroke-linecap="butt" d="m76.955345 105.21785l2.4278946 0l0 0c0.4674225 0 0.9157028 0.1856842 1.2462234 0.51620483c0.33052063 0.33052063 0.51620483 0.77880096 0.51620483 1.2462234l0 5.670639c0 3.0517578E-5 -2.2888184E-5 5.340576E-5 -4.5776367E-5 5.340576E-5l-5.9527054 -5.340576E-5l0 0c-3.0517578E-5 0 -5.340576E-5 -2.2888184E-5 -5.340576E-5 -4.5776367E-5l5.340576E-5 -5.6705933l0 0c0 -0.9733658 0.7890625 -1.7624283 1.7624283 -1.7624283z" fill-rule="evenodd"/><path fill="#999999" d="m96.33727 74.908066l0 0c0 -3.1832504 2.5805283 -5.7637787 5.7637787 -5.7637787l0 0c1.5286484 0 2.99469 0.607254 4.0756073 1.6881714c1.0809174 1.0809174 1.6881714 2.546959 1.6881714 4.0756073l0 0c0 3.1832428 -2.580536 5.7637787 -5.7637787 5.7637787l0 0c-3.1832504 0 -5.7637787 -2.580536 -5.7637787 -5.7637787z" fill-rule="evenodd"/><path stroke="#999999" stroke-width="1.0" stroke-linejoin="round" stroke-linecap="butt" d="m96.33727 74.908066l0 0c0 -3.1832504 2.5805283 -5.7637787 5.7637787 -5.7637787l0 0c1.5286484 0 2.99469 0.607254 4.0756073 1.6881714c1.0809174 1.0809174 1.6881714 2.546959 1.6881714 4.0756073l0 0c0 3.1832428 -2.580536 5.7637787 -5.7637787 5.7637787l0 0c-3.1832504 0 -5.7637787 -2.580536 -5.7637787 -5.7637787z" fill-rule="evenodd"/><path fill="#999999" d="m93.155525 68.41171l0 0c-0.2609253 -3.270218 3.6380768 -6.238537 8.708656 -6.629921c5.070587 -0.39138412 9.392624 1.942379 9.653549 5.2126007l0 0c-0.5458603 -3.107338 -4.763115 -5.2376785 -9.625603 -4.862358c-4.862488 0.37532043 -8.690247 3.1266327 -8.736603 6.2796783z" fill-rule="evenodd"/><path stroke="#999999" stroke-width="1.0" stroke-linejoin="round" stroke-linecap="butt" d="m93.155525 68.41171l0 0c-0.2609253 -3.270218 3.6380768 -6.238537 8.708656 -6.629921c5.070587 -0.39138412 9.392624 1.942379 9.653549 5.2126007l0 0c-0.5458603 -3.107338 -4.763115 -5.2376785 -9.625603 -4.862358c-4.862488 0.37532043 -8.690247 3.1266327 -8.736603 6.2796783z" fill-rule="evenodd"/><path fill="#999999" d="m35.809067 68.41171l0 0c-0.26092148 -3.270218 3.6380768 -6.238537 8.70866 -6.629921c5.0705833 -0.39138412 9.392624 1.942379 9.653545 5.2126007l0 0c-0.5458565 -3.107338 -4.763115 -5.2376785 -9.625599 -4.862358c-4.862488 0.37532043 -8.69025 3.1266327 -8.736607 6.2796783z" fill-rule="evenodd"/><path stroke="#999999" stroke-width="1.0" stroke-linejoin="round" stroke-linecap="butt" d="m35.809067 68.41171l0 0c-0.26092148 -3.270218 3.6380768 -6.238537 8.70866 -6.629921c5.0705833 -0.39138412 9.392624 1.942379 9.653545 5.2126007l0 0c-0.5458565 -3.107338 -4.763115 -5.2376785 -9.625599 -4.862358c-4.862488 0.37532043 -8.69025 3.1266327 -8.736607 6.2796783z" fill-rule="evenodd"/><path fill="#275f82" d="m44.763783 125.265495l0 0c-5.009701 4.5922165 -17.475222 -0.84381866 -27.84252 -12.141739c-10.367298 -11.297913 -14.710488 -24.179428 -9.700788 -28.771652c-2.4936867 5.933487 2.256548 17.324928 11.362571 27.248352c9.106022 9.923431 20.051136 15.63623 26.180737 13.665039z" fill-rule="evenodd"/><path fill="#275f82" d="m142.12868 88.34465l0 0c3.2528229 3.5137482 -3.1985016 14.837067 -14.409454 25.291336c-11.210945 10.454277 -22.93615 16.080688 -26.188972 12.566933c4.952408 0.88082886 15.287209 -4.8710785 24.961723 -13.892624c9.674515 -9.021545 16.148514 -18.94394 15.6367035 -23.965645z" fill-rule="evenodd"/><path fill="#275f82" d="m142.54298 106.62744l0 0c1.3046112 1.4089813 -2.4604187 7.0424347 -8.409439 12.58268c-5.9490204 5.540245 -11.829254 8.88929 -13.133858 7.480316l0 0c3.1484375 -1.3052063 7.702751 -4.5608063 12.070656 -8.628578c4.3678894 -4.067772 7.941971 -8.382027 9.472641 -11.434418z" fill-rule="evenodd"/><path fill="#275f82" d="m9.746848 26.096624l0 0c-1.4959526 -1.9134274 2.452403 -7.5609856 8.818898 -12.614173c6.366495 -5.0531883 12.740267 -7.598467 14.236221 -5.6850395l0 0c-3.4312572 0.8008976 -8.342659 3.5342436 -13.01708 7.2444057c-4.6744223 3.710164 -8.461818 7.8811903 -10.038039 11.054807z" fill-rule="evenodd"/></g></svg>